<?xml version="1.0" encoding="utf-8"?>
<!-- Generator: Adobe Illustrator 18.0.0, SVG Export Plug-In . SVG Version: 6.00 Build 0)  -->
<!DOCTYPE svg PUBLIC "-//W3C//DTD SVG 1.1//EN" "http://www.w3.org/Graphics/SVG/1.1/DTD/svg11.dtd">
<svg version="1.1" id="Layer_1" xmlns="http://www.w3.org/2000/svg" xmlns:xlink="http://www.w3.org/1999/xlink" x="0px" y="0px"
	 viewBox="7.4 118.9 587.8 589" enable-background="new 7.4 118.9 587.8 589" xml:space="preserve">
<path fill="#FFFFFF" d="M327.4,164.2c0,0-115.3,0-152.5,0c-70.7,0-137.7,52.1-137.7,115.3s48.4,115.3,115.3,115.3
	c3.7,0,11.2,0,14.9,0c-3.7,11.2-3.7,18.6-3.7,29.8c0,18.6,7.4,33.5,22.3,44.6c-7.4,0-18.6,0-26,0c-85.6,0-152.5,55.8-152.5,115.3
	c0,55.8,70.7,93,156.3,93c96.7,0,152.5-55.8,152.5-115.3c0-44.6-14.9-74.4-52.1-104.2c-18.6-7.4-44.6-33.5-44.6-48.4
	c0-18.6,3.7-26,29.8-44.6c26-22.3,44.6-48.4,44.6-81.9c0-40.9-18.6-78.1-48.4-93h48.4L327.4,164.2z M271.6,551.2
	c0,3.7,0,11.2,0,14.9c0,48.4-29.8,81.9-111.6,81.9c-59.5,0-100.5-37.2-100.5-85.6c0-44.6,52.1-81.9,111.6-81.9
	c14.9,0,26,3.7,37.2,7.4C241.8,514,264.2,525.1,271.6,551.2z M178.6,380c-40.9,0-78.1-44.6-85.6-100.5s18.6-96.7,59.5-93
	c40.9,3.7,78.1,44.6,85.6,96.7C245.6,339.1,215.8,380,178.6,380z M483.7,275.8V164.2h-37.2v115.3H334.8v37.2h111.6v115.3h37.2V316.8
	h111.6v-37.2H483.7V275.8z"/>
</svg>
