<svg xmlns:rdf="http://www.w3.org/1999/02/22-rdf-syntax-ns#" xmlns="http://www.w3.org/2000/svg" height="91.96" width="75.84" version="1.1" xmlns:cc="http://creativecommons.org/ns#" xmlns:dc="http://purl.org/dc/elements/1.1/" viewBox="0 0 75.841288 91.955582">
 <path d="m37.92.6a37.92 37.92 0 0 0 -37.92 37.92 37.92 37.92 0 0 0 13.03 28.55l24.89 24.89 24.46-24.47a37.92 37.92 0 0 0 13.46 -28.97 37.92 37.92 0 0 0 -37.92 -37.92zm0 10.08a27.84 27.84 0 0 1 27.84 27.84 27.84 27.84 0 0 1 -27.84 27.84 27.84 27.84 0 0 1 -27.84 -27.84 27.84 27.84 0 0 1 27.84 -27.84z" style="color-rendering:auto;color:#000000;isolation:auto;mix-blend-mode:normal;fill-rule:evenodd;shape-rendering:auto;solid-color:#000000;image-rendering:auto;fill:#603a23"/>
 <path style="color-rendering:auto;color:#000000;isolation:auto;mix-blend-mode:normal;fill-rule:evenodd;shape-rendering:auto;solid-color:#000000;image-rendering:auto;fill:#fff" d="m69.68 38.91a31.76 31.76 0 0 1 -31.76 31.76 31.76 31.76 0 0 1 -31.76 -31.76 31.76 31.76 0 0 1 31.76 -31.75 31.76 31.76 0 0 1 31.76 31.75z"/>
 <g transform="matrix(.9637 0 0 .9637 3.228 3.643)">
  <path d="m35.95 12.6c-0.26.021-.4945.1935-.5820.4531l-.4414 1.309c.3589-.017.7188-.02539 1.078-.02539.3595 0 .7173.0084 1.076.02539l-.4414-1.309c-.06704-.1988-.2236-.3560-.4258-.4219-.08786-.0285-.1770-.03825-.2637-.03125zm-3.775.2988v.002c-.3117.0135-.5792.2410-.6309.5566l-.2246 1.359c.7029-.1467 1.413-.2602 2.127-.3398l-.6328-1.193v-.0059c-.09516-.1983-.2822-.3367-.5020-.3711-.0456-.007-.09223-.0098-.1367-.0078zm7.686.0059c-.2601-.021-.5198.1110-.6484.3535l-.6504 1.221c.7139.0797 1.424.1933 2.127.3398l-.1914-1.17-.03125-.1875c-.03344-.2070-.1629-.3871-.3516-.4844-.08208-.042-.1672-.06536-.2539-.07227zm-11.36.8984c-.3699 0-.6703.2968-.6699.6621v1.377c.6694-.2566 1.352-.4799 2.043-.6719l-.85-1.11c-.12-.17-.32-.26-.53-.26zm15.04 0c-.2148-.0105-.4315.08106-.5703.2637l-.8359 1.104c.6913.1920 1.374.4153 2.043.6719v-1.371c.0051-.2112-.09791-.4102-.2695-.5371-.1110-.08215-.2383-.1246-.3672-.1309zm-7.533 1.055c-6.083 0-11.59 2.433-15.58 6.367-3.987 3.934-6.453 9.37-6.453 15.37 0 5.647 2.184 10.79 5.762 14.66.2406.2616.4871.5178.7402.7676 3.546 3.499 8.295 5.811 13.58 6.279-.4095-.0507-.8146-.1168-1.217-.1895 1.034.1468 2.089.2266 3.164.2266 6.083 0 11.59-2.433 15.58-6.367 3.987-3.934 6.453-9.37 6.453-15.37 0-6.003-2.466-11.44-6.453-15.37-.6020-.5941-1.238-1.153-1.906-1.676.02837.1526.0528.3028.07813.4492.1046.6080.1949 1.124.3223 1.199h.0039c.0152.023.03066.03933.04687.04883.4308.2557.9679.7174 1.479 1.234.1576.1613.3130.3252.4609.4922.6632.7484 1.226 1.562 1.365 2.08.08766.3259.3276 1.136.6172 2.004.5528 1.016 1.018 2.085 1.391 3.195.02432.0677.04837.1376.07031.2109.6242 1.934.9609 3.996.9609 6.135 0 5.576-2.291 10.62-5.994 14.28-3.703 3.654-8.818 5.916-14.47 5.916-5.651 0-10.77-2.262-14.47-5.916-3.703-3.654-5.992-8.701-5.992-14.28 0-5.576 2.289-10.63 5.992-14.28 3.703-3.654 8.82-5.916 14.47-5.916 1.251 0 2.473.1179 3.662.3301-.3341-.046-.6707-.08558-1.01-.1152 2.011.2523 3.932.7912 5.717 1.576.07312-.0514.1467-.1025.2207-.1523-.02432-.01-.04975-.01734-.07422-.02734.3216-.2177.6503-.4231.9824-.6035.1440-.0782.2883-.1545.4336-.2246-2.984-1.49-6.358-2.328-9.932-2.328zm-10.96.4180c-.05158-.005-.1042.000312-.1562.0078-.3656.05865-.6146.3988-.5547.7598l.2266 1.363c.6195-.3604 1.256-0.69 1.908-.9902l-1.006-.9570c-.1136-.1090-.2632-.1730-.4180-.1836zm21.98 0c-.1717-.005-.3431.05874-.4766.1855l-1.008.9551c.6516.3001.4098.1455 1.029.5059l.9941-.2090.1094-.6641c.03446-.2073-.02978-.4184-.1777-.5703-.1284-.1317-.2989-.1998-.4707-.2031zm3.201 2.01c-.1292 0-.2589.03934-.3730.1172l-.5840.4004c.1105.3178.2350.6163.3262 1.023.2810.2095.5572.4243.8281.6465l.4453-1.311c.06754-.1989.03927-.4185-.08203-.5918-.1315-.1879-.3452-.2873-.5605-.2852zm-28.51.0039c-.05184.005-.1038.0162-.1543.0332-.3512.1160-.5415.4914-.4238.8379l.4473 1.314c.5539-.4543 1.129-.8811 1.725-1.281l-1.15-.7871c-.1310-.08945-.2880-.1286-.4434-.1152zm-2.809 2.492c-.1025.005-.2053.02747-.2988.07617-.3281.1706-.4539.5707-.2812.8945l.6562 1.23c.4741-.5367.9743-1.051 1.498-1.541l-1.273-.5977c-.09536-.045-.1983-.0648-.3008-.0625zm34.15 0c-.08705.005-.1742.02315-.2578.0625l-1.273.5977c.5237.4897 1.022 1.004 1.496 1.541l.6543-1.225c.09901-.1856.1062-.4072.01563-.5977-.1183-.2476-.3735-.3893-.6348-.3789zm-36.52 2.916c-.1543-.008-.3069.03695-.4336.1309-.2958.2189-.3575.6340-.1348.9258l.8477 1.111c.3806-.6038.7914-1.189 1.229-1.754l-1.354-.3887c-.05067-.0145-.1029-.02289-.1543-.02539zm38.9 0c-.04459.005-.08843.01044-.1328.02344l-1.354.3887c.4373.5652.8478 1.152 1.229 1.756l.8379-1.1c.1339-.1680.1776-.3879.1172-.5938-.08994-.3064-.3868-.4992-.6973-.4746zm2.016 3.254c-.04459-.005-.09071-.0041-.1367.0059l-1.4.1699c.3405.6283.6501 1.272.9277 1.93l.9805-.9277.0059-.0039c.1750-.1448.2640-.3655.2363-.5898-.03902-.3181-.3016-.5571-.6133-.5820v-.002zm-42.93.0059c-.1541.017-.3002.08636-.4102.1992-.2566.2633-.2497.6825.01758.9355l1.02.9648c.2776-.6578.5872-1.301.9277-1.93l-1.213-.1484-.1855-.02148c-.05244-.0065-.1049-.0065-.1562 0zm.1055 3.461-1.414.05469c-0.21.009-.4016.1138-.5215.2852-.2102.3004-.1330.7127.1719.9199l1.164.7930c.1661-.6931.3666-1.379.5996-2.053zm42.74 0c.2331.6741.4314 1.36.5977 2.053l1.158-.7871c.1764-.1199.2885-.3111.2969-.5234.01419-.3647-.2750-.6731-.6445-.6875zm-43.63 3.477-1.342.2676h-.0059c-.2240.0315-.4148.1705-.5117.3730-.1580.3306-.01426.7265.3203.8828l1.283.5996c.05108-.7118.1360-1.419.2559-2.123zm44.52 0c.1199.7038.2049 1.413.2559 2.125l1.104-.5176.1816-.08398c.1923-.08965.3293-.2606.3711-.4668.07251-.3581-.1653-.7067-.5273-.7793zm-44.84 3.566-1.16.4336v.0059l-.1699.0625c-.1986.07395-.3497.2336-.4082.4355-.1015.3509.1062.7174.4609.8184l1.367.3867c-.05944-.6601-.08984-1.324-.08984-1.986v-.1543zm45.15 0v.1562c0 .6628-.0304 1.324-.08984 1.984l1.316-.375h.0059c.2235-.0475.4076-.2023.4883-.4141.1306-.3421-.0462-.7243-.3926-.8535l-1.328-.4980zm-.2656 3.576v.002c-.1105.7067-.2564 1.407-.4355 2.1l1.227-.1445v-.0059l.1875-.02148c.2107-.025.3961-.1442.5020-.3262.1840-.3161.07189-.7224-.2480-.9043zm-44.62.0039-1.178.6680-.0078.0039c-0.21.0978-.3535.2951-.3809.5234-.04358.3641.2215.6925.5898.7363l1.412.1680c-.1789-.6923-.3250-1.394-.4356-2.1zm.8418 3.484-1.098.8828c-.1647.1325-.2603.3325-.2520.5430.01419.3643.3257.6519.6953.6367l1.426-.05859c-.2901-.6549-.5470-1.324-.7715-2.004zm42.94 0c-.2245.6796-.4815 1.349-.7715 2.004l1.426.05859c.2102.0085.4140-.08298.5469-.2441.2334-.2834.1890-.7011-.09766-.9316zm-41.53 3.305-.9355 1.039c-.1501.1571-.2138.3738-.1699.5859.07383.3574.4288.5909.7910.5176l1.404-.2852c-.3938-.6014-.7566-1.221-1.09-1.857zm40.13 0c-.3331.6360-.6980 1.256-1.092 1.857l1.404.2852c.2064.0415.4202-.01454.5781-.1523.2765-.2415.3040-.6608.05859-.9336zm-38.21 3.037-.7676 1.197c-.1138.1772-.1363.3953-.06055.5918.1320.3421.5205.5129.8672.3828l1.346-.5039c-.4881-.5336-.9510-1.091-1.385-1.668zm36.29 0c-.4338.5775-.8949 1.134-1.383 1.668l1.33.5c.2020.0808.4288.06071.6133-.05469.3125-.1956.4070-.6078.2090-.9160zm-33.91 2.699-.5664 1.307c-.08295.1916-.06879.4114.03711.5918.1856.3162.5975.4232.9180.2402l1.244-.7109c-.57-.46-1.12-.94-1.64-1.44zm31.52 0c-.5211.5015-1.065.9779-1.633 1.428l1.244.7109c.1832.1046.4045.1192.5996.03711.3393-.1426.5005-.5341.3555-.8691zm-28.72 2.287-.3359 1.338v.0059c-.06643.2130-.0206.4422.1230.6152.2349.2833.6602.3256.9473.09375l1.111-.9004c-.6337-.3546-1.25-.7390-1.846-1.152zm25.93 0c-.5960.4135-1.212.7976-1.846 1.152l.9609.7773.1543.1230c.1631.1316.3791.1806.5840.1309.3582-.0869.5810-.4491.4922-.8027zm-22.8 1.816-.1016 1.232-.01563.1875c-.01621.2074.06646.4068.2246.5449.2758.2409.7012.2158.9453-.05664l.9551-1.062c-.6827-.2492-1.353-.5324-2.008-.8457zm19.67 0c-.6550.3133-1.325.5964-2.008.8457l.9141 1.02.0059.0039c.1385.1808.3602.2814.5898.2637.3685-.0285.6474-.3486.6172-.7129l-.1172-1.42zm-16.29 1.301.09961 1.229.01562.1836c.01672.2090.1305.3979.3105.5098.3124.1941.7289.09887.9258-.2090l.7695-1.201c-.7148-.1371-1.423-.3067-2.121-.5117zm12.91 0c-.6979.2051-1.406.3748-2.121.5117l.7422 1.162.0059.0059c.1092.1972.3094.3262.5371.3438.3690.0285.6933-.2475.7227-.6113l.1133-1.412zm-9.355.7383.3438 1.385c.05067.2030.1935.3692.3887.4512.3395.1425.7365-.01429.8809-.3496l.5664-1.314c-.7288-.0225-1.456-.08022-2.18-.1719zm5.805 0c-.7232.0917-1.451.1490-2.18.1719l.5625 1.307c.08381.1945.2519.3399.4609.3906.3584.08695.7225-.1305.8105-.4844z" style="fill:#71706f"/>
  <path style="fill:#603a23" d="m35.59 17.19c-5.703.024-11.64 2.639-15.62 7.719-3.839 4.906-4.689 12.77-3.424 16.3.2914.8134.7587 1.358 1.23.9316.3945-.3566 1.002-1.442 1.701-1.879.6992-.4373 2.601 3.344 3.877 4.77s3.222 1.079 4.199 1.072c.9768-.007 2.811-2.007 4.105-3.273 1.294-1.267.5508-3.758.5508-3.758s-1.481.5616-2.576.4316c-1.095-.1299-2.287-1.242-2.545-2.518-.2575-1.276.9058-1.5 1.383-2.467.4771-.9664.8835-2.502.7793-2.895-.1043-.3923.9629-1.6.9629-1.6s1.02 2.922 1.465 3.98c1.105 2.633 2.251 5.206 2.604 5.145.3387-.2088-.6980-1.405-.4453-1.938 1.158.8524 1.683 2.758 2.232 2.959.4437-.005-.5017-2.123-1.049-3.104.6392.6112 1.269 1.237 1.562 2.039.1827.5002.2290.9575 1.111 1.018.7021.048.6601.01974.4492-.7090-.2822-.9758-.9463-1.878-1.467-2.871 1.212.9757 1.706 1.685 1.971 2.781.1441.5968.2388.9465.7266.2422.08173-.1179.1664-.2490.2480-.3789.4948-.7874.08671-1.289-.5859-2.055-.5904-.6717-.8139-.9259-1.404-1.598.5883.3095 1.175.6182 1.764.9277.7630.4014.7157.5342 1.553.3379 0.46-.1079.4033-.4248-.2051-.8574-0.44-.3128-.8985-.7582-1.305-.9707-.8528-.4461-3.013-3.982-.01367-6.352s6.396 2.601 6.906 3.6c.5101.9989 1.495 3.659 2.197 3.438.7024-.2211 1.14-.3451 1.869-.5664-1.105-1.527-1.913-3.065-2.533-4.609 2.316 1.657 3.086 3.306 4.217 3.963 0 0 3.318-.1757 3.65-.7676.3319-.5919-.9378-2.607-1.527-3.291-.5895-.6838-1.649-4.203-1.857-4.988-.2086-.7847-1.96-2.778-2.955-3.375-.9948-.5975-.4543-2.969-1.729-4.582-1.311.2443-2.421.8055-3.625 1.861-2.543-1.428-5.466-2.126-8.453-2.113zm11.59 1.189c.08832-.0235.3163.8109.3398.9668.08837.5952.1173 1.982-.3633 2.414-.4336.3893-1.246-.2572-1.537-.4531-1.013-.6814.9155-2.38 1.42-2.807.06668-.0564.05555-.09849.1406-.1211zm2.443 7.367c.09445.005.1808.01525.2559.03125 1.12.2417 1.882.5841 2.086 1.857.1334.8324-.4497 1.695-1.199 1.951-.4460.1524-.9797.01539-1.43-.09961-.9808-.2512-1.877-1.847-1.605-2.818.1858-.6638 1.232-.9484 1.893-.9219zm-.2324.6719c-.1699 0-.3365.03683-.4922.1152-.7467.3772.4210 2.168 1.619 1.682.3635-.1474.4886-.7494.2051-1.115-.2926-.3775-.8223-.6842-1.332-.6816zm3.285 5.445c.1275 0 .5797.08272.7793.07813.7518-.017 1.06.7895.4277.9570-.5842.1548-.9552-.6436-1.188-1.012z"/>
  <path style="fill:#3384a7" d="m46.18 34.66c-.03344.005-.06963.01516-.1074.03516-.7920.4199-1.272.5467-1.305.6621-.07231.2532.09555.6662.03906 1.438-.1887 2.565-.6429.5833-.4473.08594.0051-.0095.06138-1.286-.1914-1.219-.1176.031-.8050.4447-.8086.4453.5419 1.387-.1817 3.584-.4844 1.451-.09354-.6593.3967-1.411-.7539-.8320-.01115.0055-.6541 1.99-1.301 2.752-2.651 3.122-1.135 6.937-3.926 9.062-1.455 1.108-2.841 2.436-4.572.9590-.9313-.7946 2.561-4.65 3.125-5.398.6280-.8340 1.947-1.836.6777-2.598-.5659-.3399-2.684-2.232-2.852-1.934-.04662.0836-.1047.2524-.09375.3887.2966 3.669-1.887 4.935-3.352 6.334-5.734 5.477-.1501 11.26 5.316 8.514 1.581-.7950 2.935-1.406 4.463-2.453.6654-.4560 3.794-2.052 4.307-.9121.6561 1.459-.6246 2.934-.6133 2.932 1.044-.2632 3.853-.6507 4.607-2.287.06065-.1315 1.736-.7458 2.549-1.699 1.654-1.939 1.611-2.204 2.459-4.863.8485-2.661 1.058-3.462 2.541-5.949.2582-.4332 1.345-4.558-.2402-4.068-1.106.3416-3.656.4414-3.68.9336-.01622.3313-1.142 5.144-1.152 5.162-.2902.5472-.6356 2.129-.7285.1348-.05016-1.079 1.211-5.11 1.178-5.236-.5042.1824-2.049.5201-2.025.8613.2730 3.914-.4532 7.261-2.805 8.561-.8599.4753-4.433-.1031-2.35-2.494 1.108-1.271 2.911-4.037 3.023-6.75.01571-.3936.0051-2.073-.4980-2.018zm7.982 2.361c.6359.0536.4609 1.412.3984 1.768-.1164.6620-.6682 1.968-1.096 1.889-.6448-.1191-.5770-1.67-.4492-2.244.1711-.7693.6006-1.333 1.008-1.404.04966-.0085.09631-.01131.1387-.0078zm-2.48 7.27c.5135.05865.1957 1.373.0625 1.736-.4439 1.21-.9134 3.122-1.986 3.916-.7949.5883-1.905 1.725-2.621.1465-.7855-1.732.9226-4.022 2.502-4.664.7563-.3075.9876-.5755 1.541-.9473.2194-.1473.3834-.2010.5020-.1875zm-1.754 2.174c-.5069.005-1.479.9896-1.666 1.299-.1651.2734-.4030.7670-.4141 1.09-.0091.2652-.09655.8375.2168.9414.2817.09345 1.743-1.208 1.908-1.578.2020-.4529.6058-1.567.04883-1.738-.02939-.009-.05996-.01367-.09375-.01367zm-3.504 4.426c.0456-.005.09192-.0041.1328.0059.05457.008.1023.02584.1348.05664.4886.4676.1464.9631-.2734 1.248-.4330.2940-.6895.9185-1.078.6426-.3345-.2375.2035-1.503.7402-1.852.06374-.0415.2066-.08911.3438-.09961z"/>
 </g>
 <path style="color-rendering:auto;color:#000000;isolation:auto;mix-blend-mode:normal;fill-rule:evenodd;shape-rendering:auto;solid-color:#000000;image-rendering:auto;fill:#3384a7" d="m37.92 2.914a36 36 0 0 0 -36 36 36 36 0 0 0 12.37 27.1l23.63 23.63 23.23-23.22a36 36 0 0 0 12.78 -27.5 36 36 0 0 0 -36 -36zm0 9.566a26.43 26.43 0 0 1 26.43 26.43 26.43 26.43 0 0 1 -26.43 26.44 26.43 26.43 0 0 1 -26.43 -26.44 26.43 26.43 0 0 1 26.43 -26.43z"/>
</svg>
