<?xml version="1.0" encoding="UTF-8" standalone="no"?>
<svg xmlns:rdf="http://www.w3.org/1999/02/22-rdf-syntax-ns#" xmlns="http://www.w3.org/2000/svg" height="32" width="32" version="1.1" xmlns:cc="http://creativecommons.org/ns#" xmlns:dc="http://purl.org/dc/elements/1.1/" viewBox="0 0 32 32">
 <g transform="translate(157.3 -301.4)">
  <path style="fill:#000000;color-rendering:auto;color:#000000;isolation:auto;mix-blend-mode:normal;fill-rule:evenodd;shape-rendering:auto;solid-color:#000000;image-rendering:auto" d="m-156.4 301.4c-.4959 0-.8952.4497-.8952 1.008v29.98c0 .5583.3993 1.008.8952 1.008h30.21c.4959 0 .8952-.4497.8952-1.008v-29.98c0-.5583-.3993-1.008-.8952-1.008h-30.21zm5.602 8.429h18.96c1.005 0 .4876 1.291-.0604 1.622-.5469.3307-8.123 4.914-8.405 5.084-.2824.1707-.6472.2510-1.015.2510-.3676 0-.7336-.0807-1.016-.2510-.2824-.1706-7.858-4.754-8.405-5.084-.5469-.3318-1.064-1.622-.0592-1.622zm-.4029 4.303c.061.007.1427.0334.2520.0981.6220.3648 8.234 4.859 8.615 5.083.3811.2243.6484.2510 1.016.2510.3675 0 .6338-.0261 1.015-.2510.3810-.2246 8.038-4.717 8.66-5.082.4385-.2574.4342.0448.4342.2771v9.202c0 0.53-.6340 1.262-1.12 1.262h-17.93c-.4864 0-1.12-.7316-1.12-1.262v-9.203c0-.1742 0-.3881.1812-.3753z"/>
 </g>
</svg>
