<?xml version="1.0" encoding="UTF-8" standalone="no"?>
<svg xmlns:rdf="http://www.w3.org/1999/02/22-rdf-syntax-ns#" xmlns="http://www.w3.org/2000/svg" height="32" width="32" version="1.1" xmlns:cc="http://creativecommons.org/ns#" xmlns:dc="http://purl.org/dc/elements/1.1/" viewBox="0 0 32 32">
 <g transform="translate(157.3 -301.4)">
  <path d="m-156.4 301.4c-.4959 0-.8952.4497-.8952 1.008v29.98c0 .5584.3993 1.008.8952 1.008h30.21c.4959 0 .8952-.4497.8952-1.008v-29.98c0-.5583-.3994-1.008-.8952-1.008h-30.21zm20.95 6.128c.9805.0549 1.761 1.193 2.45 1.969 1.273 1.432.0722 6.769-4.612 12.05-4.685 5.274-9.426 6.63-10.7 5.198-1.102-1.239-3.027-2.753-.5202-5.022 2.508-2.27 3.209-1.154 4.346.1255.7948.8950 2.806-.9732 4.541-2.926 1.734-1.954 3.394-4.218 2.602-5.113-1.139-1.281-2.13-2.071-.1138-4.894.7556-1.059 1.416-1.416 2.004-1.383z" style="fill:#000000;color-rendering:auto;color:#000000;isolation:auto;mix-blend-mode:normal;fill-rule:evenodd;shape-rendering:auto;solid-color:#000000;image-rendering:auto"/>
 </g>
</svg>
