<?xml version="1.0" encoding="UTF-8" standalone="no"?>
<svg
   xmlns:dc="http://purl.org/dc/elements/1.1/"
   xmlns:cc="http://creativecommons.org/ns#"
   xmlns:rdf="http://www.w3.org/1999/02/22-rdf-syntax-ns#"
   xmlns:svg="http://www.w3.org/2000/svg"
   xmlns="http://www.w3.org/2000/svg"
   xmlns:sodipodi="http://sodipodi.sourceforge.net/DTD/sodipodi-0.dtd"
   xmlns:inkscape="http://www.inkscape.org/namespaces/inkscape"
   viewBox="0 0 128 48"
   id="svg4136"
   version="1.1"
   inkscape:version="0.91 r13725"
   sodipodi:docname="logo.svg">
  <metadata
     id="metadata4148">
    <rdf:RDF>
      <cc:Work
         rdf:about="">
        <dc:format>image/svg+xml</dc:format>
        <dc:type
           rdf:resource="http://purl.org/dc/dcmitype/StillImage" />
        <dc:title></dc:title>
      </cc:Work>
    </rdf:RDF>
  </metadata>
  <defs
     id="defs4146" />
  <sodipodi:namedview
     pagecolor="#ffffff"
     bordercolor="#666666"
     borderopacity="1"
     objecttolerance="10"
     gridtolerance="10"
     guidetolerance="10"
     inkscape:pageopacity="0"
     inkscape:pageshadow="2"
     inkscape:window-width="1364"
     inkscape:window-height="750"
     id="namedview4144"
     showgrid="false"
     showguides="false"
     inkscape:guide-bbox="true"
     inkscape:snap-bbox="true"
     inkscape:bbox-paths="true"
     inkscape:snap-bbox-edge-midpoints="true"
     inkscape:snap-bbox-midpoints="true"
     inkscape:object-paths="true"
     inkscape:snap-intersection-paths="true"
     inkscape:object-nodes="true"
     inkscape:snap-smooth-nodes="true"
     inkscape:snap-midpoints="true"
     inkscape:snap-object-midpoints="true"
     inkscape:snap-text-baseline="true"
     inkscape:snap-page="true"
     inkscape:zoom="3.3554688"
     inkscape:cx="71.545591"
     inkscape:cy="1.9077254"
     inkscape:window-x="0"
     inkscape:window-y="16"
     inkscape:window-maximized="0"
     inkscape:current-layer="svg4136" />
  <path
     d="M 24.285156,0.00195313 C 24.025117,0.02295399 23.790682,0.19541749 23.703125,0.45507812 L 23.261719,1.7636719 c 0.358896,-0.017001 0.718773,-0.025391 1.078125,-0.025391 0.359453,0 0.717277,0.00839 1.076172,0.025391 L 24.974609,0.45507812 c -0.06704,-0.19880814 -0.223607,-0.3559723 -0.425781,-0.421875 -0.08786,-0.02850117 -0.177026,-0.03825028 -0.263672,-0.03124999 z m -3.77539,0.29882812 0,0.001953 C 20.198044,0.31623497 19.930539,0.54371207 19.878906,0.859375 L 19.654297,2.21875 C 20.357242,2.072094 21.067462,1.9585596 21.78125,1.8789062 l -0.632812,-1.19335932 0,-0.005859 c -0.09516,-0.19825812 -0.282199,-0.33669234 -0.501954,-0.37109375 -0.0456,-0.007 -0.09223,-0.009813 -0.136718,-0.007813 z m 7.685546,0.005859 c -0.260139,-0.0210003 -0.519785,0.11095606 -0.648437,0.353516 L 26.896484,1.8808594 c 0.713941,0.079703 1.423958,0.1932877 2.126954,0.3398437 L 28.832031,1.0507812 28.800781,0.86328125 c -0.03344,-0.20700848 -0.162867,-0.38712101 -0.351562,-0.484375 -0.08208,-0.0420017 -0.16721,-0.0653653 -0.253907,-0.072266 z M 16.837891,1.2050781 c -0.369942,0 -0.670327,0.2968444 -0.669922,0.6621094 l 0,1.3769531 c 0.669402,-0.2566105 1.351778,-0.4798672 2.042969,-0.671875 L 17.373047,1.4707031 C 17.245358,1.3042963 17.050148,1.2050781 16.837891,1.2050781 Z m 15.035156,0 c -0.21484,-0.0105 -0.431477,0.081064 -0.570313,0.2636719 l -0.835937,1.1035156 c 0.691292,0.1919579 1.373517,0.4153145 2.042969,0.671875 l 0,-1.3710937 C 32.514866,1.6618383 32.411855,1.4628927 32.240234,1.3359375 32.129216,1.2537845 32.001952,1.2113783 31.873047,1.2050781 Z m -7.533203,1.0546875 c -6.083442,0 -11.591357,2.4329764 -15.5781252,6.3671875 C 4.7749511,12.561114 2.3085937,17.996704 2.3085938,24 c 0,5.647281 2.1841622,10.791042 5.7617187,14.65625 0.2406319,0.261611 0.4871377,0.517817 0.7402344,0.767578 3.5458371,3.499093 8.2949701,5.810678 13.5820311,6.279297 -0.409515,-0.0507 -0.814629,-0.11685 -1.216797,-0.189453 1.033719,0.146806 2.0892,0.226562 3.164063,0.226562 6.083493,0 11.591358,-2.432925 15.578125,-6.367187 C 43.904737,35.438836 46.371094,30.003296 46.371094,24 c 0,-6.003296 -2.466357,-11.438886 -6.453125,-15.3730469 -0.60201,-0.5940743 -1.238166,-1.1534598 -1.90625,-1.6757812 0.02837,0.1525562 0.0528,0.3027628 0.07813,0.4492187 0.104633,0.608025 0.194881,1.1236157 0.322265,1.1992188 l 0.0039,0 c 0.0152,0.023001 0.03066,0.039328 0.04687,0.048828 0.430796,0.2557105 0.967862,0.7174038 1.478515,1.234375 0.157634,0.1612566 0.312981,0.3252306 0.460938,0.4921876 0.66322,0.74838 1.225993,1.562007 1.365234,2.080078 0.08766,0.325863 0.327558,1.135621 0.617188,2.003906 0.552759,1.015892 1.018403,2.084667 1.390625,3.195313 0.02432,0.0677 0.04837,0.137584 0.07031,0.210937 0.624204,1.934229 0.960938,3.996328 0.960938,6.134766 0,5.576328 -2.291075,10.623044 -5.994141,14.277344 -3.703167,3.654299 -8.817878,5.916015 -14.46875,5.916015 -5.650822,0 -10.767637,-2.261716 -14.4707031,-5.916015 C 6.1699301,34.623044 3.8808594,29.576328 3.8808594,24 c 0,-5.576429 2.2890707,-10.625047 5.9921875,-14.2792969 C 13.576075,6.0664036 18.692928,3.8046875 24.34375,3.8046875 c 1.250992,0 2.473138,0.1179194 3.662109,0.3300781 -0.334067,-0.046002 -0.670732,-0.085583 -1.009765,-0.1152344 2.010839,0.2522604 3.931895,0.7912398 5.716797,1.5761719 0.07312,-0.051402 0.146674,-0.1024917 0.220703,-0.1523437 -0.02432,-0.01 -0.04975,-0.017344 -0.07422,-0.027344 C 33.180977,5.1983565 33.509705,4.9929074 33.841797,4.8125 33.98575,4.7342968 34.13007,4.6579934 34.275391,4.5878906 31.291029,3.0979295 27.916949,2.2597656 24.34375,2.2597656 Z M 13.378906,2.6777344 c -0.05158,-0.005 -0.104161,3.125e-4 -0.15625,0.00781 -0.365634,0.058652 -0.614579,0.3988008 -0.554687,0.7597656 l 0.226562,1.3632813 C 13.514073,4.4481789 14.151016,4.1185717 14.802734,3.8183594 L 13.796875,2.8613281 C 13.683323,2.7523736 13.533703,2.6883348 13.378906,2.6777344 Z m 21.980469,0 c -0.171721,-0.005 -0.343098,0.058741 -0.476563,0.1855468 L 33.875,3.8183594 c 0.651616,0.3001123 0.409755,0.1455445 1.029297,0.5058594 L 35.898438,4.1152344 36.007812,3.4511719 C 36.042273,3.2438635 35.978036,3.0327657 35.830078,2.8808594 35.70168,2.749154 35.531146,2.6810845 35.359375,2.6777344 Z M 38.560547,4.6875 c -0.129158,0 -0.258887,0.039335 -0.373047,0.1171875 l -0.583984,0.4003906 c 0.110461,0.317763 0.234966,0.6162708 0.326172,1.0234375 C 38.210704,6.4379742 38.48688,6.6528409 38.757812,6.875 L 39.203125,5.5644531 C 39.270668,5.365545 39.242398,5.1459634 39.121094,4.9726562 38.989606,4.7847985 38.775894,4.6853999 38.560547,4.6875 Z M 10.050781,4.69141 C 9.998945,4.69641 9.9470024,4.707613 9.8964844,4.724613 9.5452398,4.8405647 9.3550004,5.2159858 9.4726562,5.5625 L 9.9199219,6.8769531 C 10.473796,6.4226845 11.049361,5.9958695 11.644531,5.5957031 L 10.494141,4.8085938 C 10.363108,4.7191401 10.206186,4.6799589 10.050781,4.6933594 Z M 7.2421875,7.1835938 c -0.1024548,0.005 -0.2052912,0.02747 -0.2988281,0.076172 -0.328139,0.170557 -0.4538827,0.5707181 -0.28125,0.8945313 l 0.65625,1.2304687 C 7.7924788,8.8480438 8.2926303,8.3334201 8.8164062,7.84375 L 7.5429688,7.2460938 c -0.095361,-0.045002 -0.1982759,-0.0648 -0.3007813,-0.0625 z m 34.1523435,0 c -0.08705,0.005 -0.174155,0.023148 -0.257812,0.0625 L 39.863281,7.84375 c 0.523725,0.4896701 1.021924,1.0043436 1.496094,1.5410156 L 42.013672,8.1601562 C 42.112681,7.9745486 42.119895,7.7529578 42.029297,7.5625 41.911033,7.3148899 41.655836,7.1731933 41.394531,7.1835938 Z M 4.8769531,10.099609 c -0.1543409,-0.008 -0.3068679,0.03695 -0.4335937,0.13086 -0.2957608,0.218909 -0.3574605,0.633969 -0.1347656,0.925781 L 5.15625,12.267578 C 5.5368325,11.663754 5.9476354,11.078896 6.3847656,10.513672 L 5.03125,10.125 C 4.98058,10.1105 4.9283831,10.102109 4.8769531,10.099609 Z m 38.9023439,0 c -0.04459,0.005 -0.08843,0.01044 -0.132813,0.02344 l -1.353515,0.388672 c 0.437333,0.565174 0.847831,1.152035 1.228515,1.755859 l 0.837891,-1.099609 c 0.13387,-0.167957 0.177586,-0.387942 0.117187,-0.59375 -0.08994,-0.306413 -0.38681,-0.499211 -0.697265,-0.474612 z m 2.015625,3.253907 c -0.04459,-0.005 -0.09071,-0.0041 -0.136719,0.0059 l -1.400391,0.169922 c 0.340452,0.628326 0.650064,1.27196 0.927735,1.929687 l 0.980469,-0.927734 0.0059,-0.0039 c 0.174964,-0.144756 0.264044,-0.365535 0.236328,-0.589844 -0.03902,-0.318063 -0.301559,-0.55713 -0.613281,-0.582031 l 0,-0.002 z m -42.9296876,0.0059 c -0.1540875,0.017 -0.3001517,0.08636 -0.4101563,0.199219 -0.2565929,0.263261 -0.2497059,0.682537 0.017578,0.935547 l 1.0195313,0.964843 c 0.2775707,-0.657818 0.587232,-1.301352 0.9277345,-1.929728 L 3.2070312,13.380859 3.0214844,13.359375 c -0.052444,-0.0065 -0.1049213,-0.0065 -0.15625,0 z M 2.9707031,16.820312 1.5566406,16.875 c -0.2099766,0.009 -0.4016497,0.113849 -0.5214844,0.285156 -0.21022988,0.300412 -0.13300641,0.712714 0.171875,0.919922 l 1.1640626,0.792969 C 2.53719,18.179918 2.7376717,17.494439 2.9707031,16.820312 Z m 42.7382809,0 c 0.233133,0.674127 0.431358,1.359606 0.597657,2.052735 l 1.158203,-0.787109 c 0.176382,-0.119905 0.288464,-0.311079 0.296875,-0.523438 0.01419,-0.364715 -0.274994,-0.673149 -0.644531,-0.6875 z m -43.630859,3.476563 -1.34179688,0.267578 -0.005859,0 C 0.50650727,20.595953 0.31563107,20.734942 0.21875,20.9375 0.06071021,21.268064 0.2044884,21.664005 0.5390625,21.820312 l 1.2832031,0.59961 c 0.051075,-0.711829 0.1360248,-1.419268 0.2558594,-2.123047 z m 44.521484,0 c 0.119936,0.703779 0.204886,1.413221 0.25586,2.125 l 1.103515,-0.517578 0.181641,-0.08398 c 0.192293,-0.08965 0.329291,-0.260587 0.371094,-0.466796 0.07251,-0.358114 -0.165257,-0.706694 -0.527344,-0.779297 z m -44.8359371,3.566406 -1.16015628,0.433594 0,0.0059 -0.16992187,0.0625 c -0.19862647,0.07395 -0.34972993,0.233638 -0.40820312,0.435547 -0.10149204,0.350864 0.10619671,0.717356 0.46093749,0.81836 L 1.8535156,26.0059 c -0.059436,-0.660127 -0.089844,-1.323601 -0.089844,-1.986328 l 0,-0.154297 z m 45.1503901,0 0,0.15625 c 0,0.662777 -0.0304,1.324148 -0.08984,1.984375 l 1.316406,-0.375 0.0059,0 c 0.223505,-0.0475 0.407565,-0.202304 0.488282,-0.414062 0.130577,-0.342064 -0.0462,-0.724311 -0.392578,-0.853516 l -1.328126,-0.498047 z m -0.265624,3.576172 0,0.002 c -0.110512,0.706729 -0.256377,1.406631 -0.435547,2.09961 l 1.226562,-0.144532 0,-0.0059 0.1875,-0.02148 c 0.210737,-0.025 0.396053,-0.144164 0.501953,-0.326172 0.184033,-0.316113 0.07189,-0.722439 -0.248047,-0.904297 z m -44.6191411,0.0039 -1.1777344,0.667969 -0.007813,0.0039 c -0.21002722,0.0978 -0.35354823,0.295128 -0.38085938,0.523438 -0.0435762,0.364115 0.22147272,0.692526 0.58984378,0.736328 l 1.4121094,0.167969 C 2.2859356,28.850697 2.1398713,28.149384 2.0292969,27.443353 Z m 0.8417969,3.484375 -1.0976563,0.882813 c -0.1646775,0.132455 -0.2603137,0.33251 -0.2519531,0.542969 0.014188,0.364315 0.3257254,0.651869 0.6953125,0.636718 l 1.4257812,-0.05859 C 3.3524923,32.276712 3.095562,31.607361 2.8710938,30.927728 Z m 42.9355472,0 c -0.224468,0.679627 -0.481501,1.34888 -0.771485,2.003907 l 1.425782,0.05859 c 0.21023,0.0085 0.414018,-0.08298 0.546874,-0.24414 0.233387,-0.283362 0.189032,-0.701132 -0.09766,-0.931641 z M 4.2734375,34.232422 3.3378906,35.271484 c -0.1501352,0.157057 -0.2138021,0.373829 -0.1699218,0.585938 0.073826,0.357364 0.4287757,0.590881 0.7910156,0.517578 L 5.3632812,36.089844 C 4.9695246,35.488419 4.6066436,34.868348 4.2734375,34.232422 Z m 40.1328125,0 c -0.333105,0.636026 -0.69804,1.255897 -1.091797,1.857422 L 44.71875,36.375 c 0.206379,0.0415 0.420186,-0.01454 0.578125,-0.152344 0.276506,-0.241509 0.30404,-0.660783 0.05859,-0.933594 z M 6.1914062,37.269531 5.4238281,38.466797 c -0.1137542,0.177158 -0.1362986,0.395339 -0.060547,0.591797 0.132046,0.342114 0.5205032,0.512918 0.8671876,0.382812 L 7.5761719,38.9375 C 7.0881183,38.403878 6.6251923,37.846955 6.1914062,37.269531 Z m 36.2949218,0 c -0.433786,0.577524 -0.89486,1.134297 -1.382812,1.667969 l 1.330078,0.5 c 0.20197,0.0808 0.428792,0.06071 0.613281,-0.05469 0.312482,-0.195557 0.407003,-0.607752 0.208984,-0.916015 z M 8.5800781,39.96875 8.0136719,41.275391 c -0.082947,0.191558 -0.068791,0.411389 0.037109,0.591797 0.1856043,0.316212 0.5975316,0.423192 0.9179688,0.240234 L 10.212891,41.396484 C 9.6453868,40.946766 9.1012192,40.47012 8.5800781,39.96875 Z m 31.5175779,0 c -0.521141,0.50152 -1.065257,0.977866 -1.632812,1.427734 l 1.24414,0.710938 c 0.183172,0.104605 0.40448,0.119164 0.59961,0.03711 0.339337,-0.142556 0.500487,-0.534126 0.355468,-0.86914 z m -28.724609,2.287109 -0.335938,1.337891 0,0.0059 c -0.06643,0.212958 -0.0206,0.442228 0.123047,0.615235 0.234906,0.283311 0.66017,0.325563 0.947266,0.09375 L 13.21875,43.408244 C 12.585071,43.053629 11.968977,42.669217 11.373047,42.2559 Z m 25.931641,0 c -0.596033,0.413466 -1.212025,0.797629 -1.845704,1.152344 l 0.960938,0.777344 0.154297,0.123047 c 0.163056,0.131555 0.379125,0.180611 0.583984,0.130859 0.358237,-0.0869 0.580962,-0.449069 0.492188,-0.802734 z m -22.802735,1.816407 -0.101562,1.232422 -0.01563,0.1875 c -0.01621,0.207408 0.06646,0.406766 0.224609,0.544921 0.275847,0.24091 0.701236,0.215819 0.945313,-0.05664 l 0.955078,-1.0625 c -0.682677,-0.249211 -1.352801,-0.53239 -2.007808,-0.845703 z m 19.673828,0 c -0.654961,0.313313 -1.325135,0.596442 -2.007812,0.845703 l 0.914062,1.019531 0.0059,0.0039 c 0.138532,0.180807 0.360206,0.281373 0.589843,0.263672 0.368523,-0.0285 0.647388,-0.348575 0.617188,-0.71289 L 34.177774,44.07226 Z m -16.291015,1.300781 0.09961,1.228515 L 18,46.785156 c 0.01672,0.209009 0.130466,0.397861 0.310547,0.509766 0.312381,0.194058 0.728877,0.09887 0.925781,-0.208984 l 0.769531,-1.201172 c -0.714854,-0.137055 -1.423063,-0.30671 -2.121093,-0.511719 z m 12.908203,0 c -0.697929,0.205109 -1.406242,0.374764 -2.121094,0.511719 l 0.742187,1.162109 0.0059,0.0059 c 0.109193,0.197208 0.309448,0.326199 0.537109,0.34375 0.368979,0.0285 0.693268,-0.247513 0.722657,-0.611328 l 0.113281,-1.412109 z m -9.355469,0.738281 0.34375,1.384766 c 0.05067,0.202958 0.193541,0.369218 0.388672,0.451172 0.339489,0.142506 0.7365,-0.01429 0.880859,-0.34961 l 0.566407,-1.314453 c -0.728838,-0.0225 -1.456424,-0.08022 -2.179688,-0.171875 z m 5.804688,0 c -0.723214,0.0917 -1.45085,0.149025 -2.179688,0.171875 l 0.5625,1.306641 c 0.08381,0.194508 0.251872,0.339873 0.460938,0.390625 0.358388,0.08695 0.722532,-0.13051 0.810546,-0.484375 z"
     style="fill:#71706f;fill-opacity:1"
     id="path4138"
     inkscape:connector-curvature="0"
     sodipodi:nodetypes="cccscccccccccccccccccccccsccccsscccccsssscsccssssccccccsccccssssscscccccscsscccccccccccccccccccccsccccccccccccccccccccccccccccccccccccccccccccccccccccccccccccccccccsccccccccccccccccccccccscccscccccccccccccccccccccccccccccccccccccccccccccccccccccccccccccccccccccccccccccccccccccccccccccccccccccccccccccccccccccccccccccccc" />
  <path
     d="m 95.338359,13.297599 c -2.434,0.464316 -4.180649,1.697584 -5.232422,3.6875 -1.058223,2.005263 -1.567482,4.323372 -1.541016,6.951172 0,0.836726 0.204041,1.886947 0.607422,3.152344 l 1.720703,5.367188 c 0.152112,0.469459 0.22461,0.801052 0.22461,1 0,0.173483 -0.03878,0.307373 -0.111328,0.404296 -0.07955,0.122534 -0.19355,0.194334 -0.345703,0.214844 l 0,0.310547 c 1.230179,-0.209171 2.290104,-0.647978 3.169921,-1.316406 0.839807,-0.658162 1.527829,-1.485458 2.070313,-2.480469 1.005376,-2.102101 1.5,-4.391749 1.5,-6.861328 -0.01987,-0.994968 -0.250966,-2.194901 -0.6875,-3.587891 l -1.521484,-4.714843 c -0.178579,-0.44389 -0.271485,-0.871916 -0.271485,-1.285157 0,-0.326519 0.140276,-0.506086 0.417969,-0.546875 z m 19.957031,0 c -2.43409,0.464316 -4.18078,1.697584 -5.23242,3.6875 -1.05825,2.005263 -1.56748,4.323372 -1.54101,6.951172 0,0.836726 0.20594,1.886947 0.60937,3.152344 l 1.71875,5.367188 c 0.15209,0.469459 0.22656,0.801052 0.22656,1 0,0.173483 -0.0406,0.307373 -0.11328,0.404296 -0.0794,0.122534 -0.1916,0.194334 -0.34375,0.214844 l 0,0.310547 c 1.23018,-0.209171 2.28822,-0.647978 3.16797,-1.316406 0.83989,-0.658162 1.52796,-1.485458 2.07031,-2.480469 1.00538,-2.102101 1.50196,-4.391749 1.50196,-6.861328 -0.0194,-0.994968 -0.25104,-2.194901 -0.6875,-3.587891 l -1.52149,-4.714843 c -0.1786,-0.44389 -0.27148,-0.871916 -0.27148,-1.285157 0,-0.326519 0.13821,-0.506086 0.41601,-0.546875 z m 7.61719,0.117188 c -1.38898,0.02024 -2.40095,0.284716 -3.0293,0.794922 -0.66147,0.525594 -0.98437,1.189238 -0.98437,1.990234 l 0,0.791016 -0.41797,0.193359 0,0.271485 3.71875,0 0,-0.271485 -0.49609,-0.193359 0,-0.703125 c 0,-0.801122 0.065,-1.388831 0.19726,-1.771485 0.13237,-0.367351 0.5162,-0.55664 1.14453,-0.55664 0.5688,0 0.92048,0.164129 1.05274,0.480468 0.10582,0.35211 0.1582,0.750227 0.1582,1.199219 l 0,1.203125 c 0,0.51029 -0.0797,0.9599 -0.23828,1.347656 -0.19193,0.408267 -0.55492,0.617188 -1.08399,0.617188 -0.74075,0 -1.37051,0.08158 -1.90624,0.25 -0.52912,0.158158 -0.94495,0.363279 -1.25586,0.613281 -0.32409,0.239757 -0.54342,0.519942 -0.64258,0.851563 -0.1588,0.306136 -0.23047,0.596323 -0.23047,0.876953 l -0.41797,0.193359 0,0.271485 3.71875,0 0,-0.271485 -0.49609,-0.193359 c -0.0194,-0.648001 0.0597,-1.157893 0.23828,-1.525391 0.14553,-0.346925 0.51489,-0.52539 1.10351,-0.52539 0.88633,-0.01518 1.28363,0.780194 1.21094,2.392578 l 0,3.066406 c 0,0.938834 -0.0668,1.679432 -0.19922,2.230469 -0.13233,0.56634 -0.32283,1.016013 -0.57422,1.347656 -0.23809,0.32652 -0.50248,0.627231 -0.80664,0.892578 -0.31751,0.260162 -0.64188,0.565058 -0.97265,0.912109 l 0,-5.753906 0.53515,-0.271484 -0.17187,-0.433594 -3.4336,0 -0.1914,0.373047 0.45703,0.332031 0,5.933594 c 0,1.010293 0.37599,1.868214 1.13672,2.572266 0.7342,0.760292 1.98402,1.147585 3.75,1.167968 0.80042,0 1.54136,-0.183451 2.22265,-0.550781 0.68122,-0.372536 1.0399,-0.928861 1.06641,-1.673828 -0.053,-0.918387 -0.56909,-1.393284 -1.55469,-1.423828 -0.95231,0.03067 -1.43646,0.403306 -1.46289,1.107422 0.0263,0.719376 0.47687,1.076172 1.36328,1.076172 0.52249,-0.02024 0.84652,-0.184099 0.95899,-0.490235 l 0.11914,0.02539 c -0.0529,0.41324 -0.3306,0.740232 -0.83985,0.990234 -0.50262,0.260288 -1.06526,0.388672 -1.67382,0.388672 -1.36253,0 -2.05755,-0.597878 -2.08399,-1.796875 -0.0263,-0.658267 0.39092,-1.260664 1.24414,-1.80664 1.14437,-0.719378 2.08414,-1.47937 2.81836,-2.275391 0.71433,-0.775511 1.08482,-1.745289 1.11133,-2.898438 l 0,-3.351562 c 0,-0.54602 -0.15996,-1.055932 -0.4707,-1.525391 -0.37038,-0.448991 -1.0921,-0.775289 -2.15039,-0.984375 0.7276,-0.219458 1.33082,-0.506569 1.82031,-0.853515 0.50925,-0.352026 0.77427,-0.88744 0.80078,-1.617188 0,-0.969399 -0.29293,-1.713446 -0.875,-2.24414 -0.60191,-0.52549 -1.69974,-0.791016 -3.28711,-0.791015 z m -15.29492,0.03516 -0.58203,0.148438 -8.941412,0 0,0.341796 0.845703,0.203126 0,19.298828 -0.845703,0.203125 0,0.341797 9.861332,0 0,-0.341797 -0.83984,-0.203125 0,-7.929688 0.46289,-0.193359 -0.15235,-0.449219 c -0.29767,0.04104 -0.60137,0.06055 -0.91211,0.06055 -1.38249,-0.02024 -2.50657,-0.388046 -3.37304,-1.107422 -0.92612,-0.699078 -1.39649,-1.576649 -1.39649,-2.632813 l 0,-7.046874 2.47461,0 c -0.0263,0.632656 -0.10681,1.373359 -0.23242,2.230468 -0.17197,0.887907 -0.25781,1.510797 -0.25781,1.873047 0,0.734849 0.22516,1.269183 0.68164,1.595703 0.36367,0.36735 0.80076,0.556641 1.29687,0.556641 0.80018,0 1.34771,-0.192997 1.63867,-0.585938 0.15213,-0.168424 0.26638,-0.3429 0.34571,-0.521484 0.0263,-0.178543 0.0391,-0.341062 0.0391,-0.494141 0,-0.346924 -0.11892,-0.63221 -0.34375,-0.851562 -0.29108,-0.229618 -0.67484,-0.341797 -1.14453,-0.341797 -0.87971,0.02024 -1.32903,0.387961 -1.35547,1.107422 0,0.306115 0.12494,0.549889 0.38281,0.728515 0.21167,0.229597 0.50229,0.347657 0.85938,0.347657 l 0,0.208984 c -0.38353,0.03586 -0.74589,-0.06093 -1.08985,-0.300781 -0.41677,-0.250023 -0.6289,-0.638469 -0.6289,-1.164063 0,-1.051145 0.25874,-1.877162 0.78125,-2.484375 0.49604,-0.607087 1.3678,-1.352391 2.61133,-2.240234 L 107.6177,13.44995 Z m -14.720707,1.246094 c -0.178578,0.428587 -0.271485,0.938708 -0.271485,1.52539 0,0.229619 0.02698,0.443653 0.08008,0.642579 0.02634,0.229618 0.07954,0.515161 0.152344,0.867187 l 1.837891,6.265625 c 0.330903,1.535803 0.496093,2.832489 0.496094,3.888672 0,0.943894 -0.152894,1.876514 -0.457032,2.794922 -0.343955,0.933775 -0.886175,1.7003 -1.626953,2.287109 0.171977,-0.357191 0.265625,-0.817667 0.265625,-1.378906 0,-0.64798 -0.14652,-1.407557 -0.4375,-2.285156 l -1.626953,-5.638672 c -0.330647,-1.142946 -0.508711,-2.428702 -0.535156,-3.857422 0,-0.974564 0.165405,-1.917881 0.496093,-2.826172 0.317489,-0.87764 0.859603,-1.637112 1.626952,-2.285156 z m 19.958987,0 c -0.17853,0.428587 -0.27148,0.938708 -0.27148,1.52539 0,0.229619 0.0251,0.443653 0.0781,0.642579 0.0264,0.229618 0.0796,0.515161 0.15234,0.867187 l 1.83985,6.265625 c 0.33079,1.535803 0.49609,2.832489 0.49609,3.888672 0,0.943894 -0.15281,1.876514 -0.45703,2.794922 -0.34398,0.933775 -0.88611,1.7003 -1.62695,2.287109 0.17197,-0.357191 0.26367,-0.817667 0.26367,-1.378906 0,-0.64798 -0.14468,-1.407557 -0.43555,-2.285156 l -1.62695,-5.638672 c -0.33067,-1.142946 -0.51073,-2.428702 -0.53711,-3.857422 0,-0.974564 0.16536,-1.917881 0.49609,-2.826172 0.31746,-0.87764 0.86171,-1.637112 1.62891,-2.285156 z m -11.11133,8.794922 c 0.23824,0.321482 0.61493,0.623272 1.13086,0.914062 0.50925,0.311238 0.98546,0.555748 1.42188,0.734375 l 0,8.302735 -2.55274,0 z"
     style="fill:#603a23;fill-opacity:1"
     id="path4140"
     inkscape:connector-curvature="0"
     sodipodi:nodetypes="cccccsccccccccscccccccsccccccccsccccsccccccscscsscsccccccccccccsccccccccccsccccccccccsccccsccccccccccccccccccccccscccscsccscccccccscccccscccsccsccccccscccsccscccccccccccc" />
  <path
     id="path4302"
     style="fill:#603a23;fill-opacity:1"
     d="M 23.927734,4.5917969 C 18.224671,4.6157979 12.288069,7.2308389 8.3125,12.310547 4.4730301,17.216248 3.6231883,25.07688 4.8886719,28.609375 c 0.2914033,0.813383 0.7587309,1.357908 1.2304687,0.931641 0.3944661,-0.356565 1.001875,-1.441589 1.7011719,-1.878907 0.6992462,-0.437268 2.6008795,3.343624 3.8769535,4.769532 1.275972,1.425959 3.222401,1.079115 4.199218,1.072265 0.976816,-0.007 2.811255,-2.006535 4.105469,-3.273437 1.294213,-1.266852 0.550781,-3.757813 0.550781,-3.757813 0,0 -1.481447,0.561596 -2.576172,0.431641 -1.094777,-0.129906 -2.287365,-1.241876 -2.544921,-2.517578 -0.257505,-1.275803 0.905754,-1.500358 1.382812,-2.466797 0.477109,-0.96639 0.883525,-2.502215 0.779297,-2.894531 -0.10433,-0.392266 0.962891,-1.59961 0.962891,-1.59961 0,0 1.020467,2.922225 1.464843,3.980469 1.105367,2.632657 2.251461,5.205584 2.603516,5.144531 0.338678,-0.208808 -0.697953,-1.405028 -0.445312,-1.9375 1.158317,0.852435 1.683361,2.758227 2.232421,2.958985 0.443717,-0.005 -0.501744,-2.122776 -1.048828,-3.103516 0.639151,0.611175 1.269374,1.23653 1.5625,2.039062 0.182666,0.50022 0.228961,0.957527 1.111328,1.017579 0.702084,0.048 0.660108,0.01974 0.449219,-0.708985 -0.282232,-0.97584 -0.946315,-1.878304 -1.466797,-2.871094 1.211672,0.975741 1.706155,1.684556 1.970703,2.78125 0.144055,0.596825 0.238762,0.946467 0.726563,0.242188 0.08173,-0.117904 0.166367,-0.248951 0.248047,-0.378906 0.494793,-0.787382 0.08671,-1.289407 -0.585938,-2.054688 -0.590407,-0.671728 -0.81394,-0.925878 -1.404297,-1.597656 0.588279,0.309463 1.175343,0.618222 1.763672,0.927734 0.76299,0.401367 0.715666,0.534199 1.552735,0.337891 0.459982,-0.107904 0.403316,-0.424804 -0.205078,-0.857422 C 28.645969,23.03289 28.187471,22.587459 27.78125,22.375 c -0.852777,-0.446118 -3.012622,-3.981865 -0.01367,-6.351562 2.999209,-2.369648 6.396104,2.600718 6.90625,3.599609 0.510145,0.99889 1.49498,3.658609 2.197266,3.4375 0.702438,-0.221109 1.139643,-0.345097 1.86914,-0.566406 -1.10486,-1.527462 -1.913356,-3.065461 -2.533203,-4.609375 2.315519,1.657268 3.086196,3.305813 4.216797,3.96289 0,0 3.318452,-0.175653 3.650391,-0.767578 0.331889,-0.591924 -0.937798,-2.607238 -1.527344,-3.291016 -0.58949,-0.683827 -1.648814,-4.203449 -1.857422,-4.988281 -0.20856,-0.784682 -1.960377,-2.777576 -2.95508,-3.3749998 C 36.739622,8.8283068 37.280058,6.4570661 36.005859,4.84375 34.695279,5.08801 33.584424,5.6492848 32.380859,6.7050781 29.837731,5.2769696 26.915036,4.5791964 23.927734,4.5917969 Z M 35.521484,5.78125 c 0.08832,-0.023501 0.316333,0.8109405 0.339844,0.9667969 0.08837,0.5952244 0.117324,1.9823948 -0.363281,2.4140625 -0.433583,0.389266 -1.245807,-0.257167 -1.537109,-0.453125 -1.012539,-0.6813779 0.915501,-2.3798231 1.419921,-2.8066406 0.06668,-0.056402 0.05555,-0.098493 0.140625,-0.1210938 z m 2.44336,7.367192 c 0.09445,0.005 0.180766,0.01525 0.255859,0.03125 1.119554,0.241709 1.881839,0.584069 2.085938,1.857421 0.133363,0.832434 -0.449657,1.695011 -1.199219,1.951172 -0.445997,0.152406 -0.979738,0.01539 -1.429688,-0.09961 -0.980769,-0.251161 -1.877312,-1.84662 -1.605468,-2.81836 0.185756,-0.663826 1.231639,-0.948375 1.892578,-0.921873 z m -0.232422,0.671874 c -0.169897,0 -0.336479,0.03683 -0.492188,0.115235 -0.746673,0.377215 0.420998,2.16801 1.619141,1.681641 0.363507,-0.147407 0.488576,-0.74942 0.205078,-1.115235 -0.292569,-0.377516 -0.822291,-0.68419 -1.332031,-0.681641 z m 3.285156,5.445313 c 0.127486,0 0.579708,0.08272 0.779297,0.07813 0.751791,-0.017 1.060045,0.789474 0.427734,0.957031 -0.584226,0.154757 -0.955229,-0.643554 -1.1875,-1.011719 z"
     inkscape:connector-curvature="0"
     sodipodi:nodetypes="ssccccccccccccccccccccccccsccccccsccccccscccsccccccccccccccccscccccc" />
  <path
     id="path4300"
     style="fill:#3384a7;fill-opacity:1"
     d="m 34.515625,22.058594 c -0.03344,0.005 -0.06963,0.01516 -0.107422,0.03516 -0.792023,0.419867 -1.271752,0.546704 -1.304687,0.662109 -0.07231,0.25321 0.09555,0.666168 0.03906,1.4375 -0.188695,2.565005 -0.642851,0.583312 -0.447266,0.08594 0.0051,-0.0095 0.06138,-1.285802 -0.191406,-1.21875 -0.117555,0.031 -0.804996,0.444662 -0.808594,0.445312 0.541917,1.386756 -0.181722,3.583759 -0.484374,1.451172 -0.09354,-0.659277 0.396708,-1.410605 -0.753907,-0.832031 -0.01115,0.0055 -0.65408,1.990171 -1.300781,2.751953 -2.650549,3.122078 -1.134522,6.936813 -3.925781,9.0625 -1.454585,1.107845 -2.841277,2.436096 -4.572266,0.958985 -0.931315,-0.794582 2.561093,-4.649607 3.125,-5.398438 0.627953,-0.833984 1.946562,-1.835675 0.677735,-2.597656 -0.565934,-0.339864 -2.683947,-2.232406 -2.851563,-1.933594 -0.04662,0.0836 -0.104691,0.252417 -0.09375,0.388672 0.296622,3.668601 -1.88725,4.934726 -3.351563,6.333984 -5.734224,5.476774 -0.150078,11.263035 5.316407,8.513672 1.580752,-0.794982 2.93524,-1.406382 4.46289,-2.453125 0.665399,-0.455969 3.793911,-2.052106 4.306641,-0.912109 0.656126,1.458709 -0.624581,2.93449 -0.613281,2.93164 1.044106,-0.263211 3.852692,-0.650692 4.607422,-2.287109 0.06065,-0.131505 1.735929,-0.74583 2.548828,-1.699219 1.653515,-1.939179 1.610971,-2.203622 2.458984,-4.863281 0.84852,-2.661109 1.05831,-3.461568 2.541016,-5.949219 0.258215,-0.433218 1.344622,-4.557829 -0.240235,-4.068359 -1.105823,0.341564 -3.656075,0.441374 -3.679687,0.933594 -0.01622,0.331314 -1.142464,5.143508 -1.152344,5.162109 -0.290188,0.547172 -0.635637,2.128598 -0.728515,0.134766 -0.05016,-1.079394 1.211329,-5.109923 1.177734,-5.236328 -0.504166,0.182407 -2.049155,0.520114 -2.025391,0.861328 0.272959,3.91426 -0.453244,7.260892 -2.804687,8.560546 -0.85987,0.475319 -4.433313,-0.103142 -2.34961,-2.49414 1.1079,-1.271002 2.910646,-4.037289 3.023438,-6.75 0.01571,-0.393566 0.0051,-2.07293 -0.498045,-2.017584 z m 7.982422,2.361328 c 0.635858,0.0536 0.460914,1.412464 0.398437,1.767578 -0.116439,0.662028 -0.6682,1.967525 -1.095703,1.888672 -0.644776,-0.119055 -0.576957,-1.670118 -0.449219,-2.244141 0.171113,-0.769332 0.600628,-1.333194 1.007813,-1.404297 0.04966,-0.0085 0.09631,-0.01131 0.138672,-0.0078 z m -2.474609,7.271484 c 0.51354,0.05865 0.195709,1.373313 0.0625,1.736328 -0.44392,1.20965 -0.913392,3.122034 -1.986329,3.916016 -0.794912,0.588324 -1.905379,1.725099 -2.621093,0.146484 -0.785486,-1.732421 0.922619,-4.021835 2.501953,-4.664062 0.7563,-0.307462 0.987648,-0.575501 1.541015,-0.947266 0.21935,-0.147307 0.383437,-0.201001 0.501954,-0.1875 z m -1.753907,2.173828 c -0.506903,0.005 -1.479296,0.989616 -1.666015,1.298828 -0.165133,0.273412 -0.402966,0.76703 -0.414063,1.089844 -0.0091,0.265161 -0.09655,0.837452 0.216797,0.941406 0.281675,0.09345 1.742917,-1.207509 1.908203,-1.578124 0.202021,-0.45292 0.605793,-1.567325 0.04883,-1.738282 -0.02939,-0.009 -0.05996,-0.01367 -0.09375,-0.01367 z m -3.503906,4.425782 c 0.0456,-0.005 0.09192,-0.0041 0.132813,0.0059 0.05457,0.008 0.102337,0.02584 0.134765,0.05664 0.488561,0.467569 0.146414,0.963135 -0.273437,1.248046 -0.432976,0.293963 -0.689486,0.91854 -1.078125,0.642579 -0.334473,-0.23751 0.203537,-1.502748 0.740234,-1.851563 0.06374,-0.0415 0.206587,-0.08911 0.34375,-0.09961 z"
     inkscape:connector-curvature="0"
     sodipodi:nodetypes="cccccccccccccscccccccsccsccccccccccccccccccccccccccccccccccccccc" />
  <path
     d="m 77.549296,13.478516 c -1.88812,0.02024 -2.902319,0.815986 -3.054687,2.392578 l -1.34375,8.328125 -0.623047,0 -2.226563,-10.015625 0.728516,-0.240235 -0.07227,-0.310547 -4.365234,0 0,0.371094 0.90625,0.179688 2.345703,10.015625 -0.808593,0.234375 0,0.30664 3.929687,0 -0.390625,2.291016 -0.337891,0 c -1.391199,0.02024 -2.551085,0.377116 -3.478515,1.076172 -0.940803,0.688833 -1.425405,1.546752 -1.445313,2.572266 0.01965,1.061368 0.505315,1.94458 1.439453,2.664062 0.927473,0.739761 2.078271,1.116314 3.462891,1.136719 1.344802,-0.02024 2.485441,-0.396958 3.40625,-1.136719 0.947445,-0.714423 1.437122,-1.603973 1.457031,-2.660156 -0.01965,-0.857215 -0.383159,-1.611327 -1.072265,-2.269532 -0.7088,-0.648001 -1.584912,-1.086788 -2.625,-1.316406 l 1.52539,-9.607422 c 0.05295,-0.239863 0.1913,-0.496371 0.429688,-0.761718 0.19885,-0.229597 0.464803,-0.356548 0.802734,-0.376954 0.583006,0.02024 0.873047,0.470037 0.873047,1.347657 l 0.537109,0 z m 5.351563,0 c -2.815679,0.0613 -4.199824,0.974355 -4.160156,2.75 l 0,17.242187 -0.84961,0.208985 0,0.341796 4.552735,0 0,-0.341796 -0.894532,-0.208985 0,-9.09375 c 0.05304,0.158137 0.258285,0.332655 0.609375,0.521485 0.311336,0.204111 0.760851,0.300781 1.34375,0.300781 0.636045,0 1.252448,-0.183431 1.855469,-0.550781 0.556411,-0.341909 0.848534,-0.888188 0.875,-1.648438 0,-0.408181 -0.145224,-0.734352 -0.443359,-0.984375 -0.284742,-0.260288 -0.663,-0.392578 -1.146485,-0.392578 -0.980576,0.02024 -1.470703,0.387661 -1.470703,1.091797 0.02636,0.719503 0.482967,1.082031 1.357422,1.082031 0.496856,-0.02024 0.788894,-0.189915 0.875,-0.496094 l 0.119141,0.03125 c -0.198764,0.898025 -0.89465,1.352663 -2.09375,1.373047 -1.199057,-0.02024 -1.82782,-0.689035 -1.88086,-2.015625 0,-0.780697 0.271222,-1.414433 0.814453,-1.904297 0.483656,-0.4847 1.079813,-0.841174 1.775391,-1.060547 0.370997,-0.127594 0.714666,-0.24483 1.019531,-0.341797 0.317894,-0.102002 0.624181,-0.220489 0.902344,-0.363281 0.298135,-0.168425 0.516813,-0.417599 0.675781,-0.74414 0.125902,-0.301077 0.191407,-0.720127 0.191407,-1.25586 l 0,-0.943359 c -0.05295,-1.709286 -1.397314,-2.577273 -4.027344,-2.597656 z m -31.384766,0.0059 -0.205078,0.357422 c 1.258739,0.928674 2.152052,1.836329 2.66211,2.734375 0.490276,0.898045 0.728515,1.882417 0.728515,2.958984 -0.02008,0.535754 -0.218503,0.929323 -0.576172,1.164063 -0.364397,0.250044 -0.742647,0.357195 -1.126953,0.316406 l 0,-0.224609 c 0.384306,0 0.697052,-0.111816 0.935547,-0.326172 0.205344,-0.193889 0.304688,-0.435251 0.304687,-0.736328 -0.02638,-0.719461 -0.477107,-1.085043 -1.351562,-1.105469 -0.463833,0 -0.807973,0.11062 -1.033203,0.330078 -0.278249,0.229618 -0.412109,0.515036 -0.412109,0.867187 0,0.32652 0.13386,0.658092 0.412109,1 0.311464,0.387756 0.834219,0.582032 1.576172,0.582032 1.1991,0.02024 1.834493,-0.69278 1.914062,-2.136719 -0.02638,-0.408244 -0.09873,-1.199888 -0.224609,-2.363281 -0.178962,-1.137761 -0.265625,-2.046022 -0.265625,-2.72461 l 2.425781,0 0,19.292969 -0.802734,0.25 0,0.300781 4.425781,0 0,-0.296875 -0.814453,-0.253906 0,-19.292969 2.43164,0 c -0.0264,0.632698 -0.100719,1.373339 -0.226562,2.230469 -0.152389,0.887844 -0.224609,1.509976 -0.224609,1.867188 0,0.739866 0.212723,1.275042 0.636718,1.601562 0.364418,0.367371 0.787152,0.556641 1.277344,0.556641 0.801699,0 1.345497,-0.198182 1.617188,-0.585938 0.152453,-0.168424 0.271187,-0.342942 0.357421,-0.521484 0.02638,-0.178522 0.03906,-0.346164 0.03906,-0.494141 0,-0.346925 -0.118927,-0.634184 -0.357422,-0.853515 -0.278291,-0.229618 -0.641637,-0.341797 -1.105469,-0.341797 -0.881056,0.02024 -1.330934,0.387961 -1.357422,1.107422 0,0.306136 0.131438,0.551841 0.396485,0.730468 0.198764,0.229597 0.48328,0.341797 0.847656,0.341797 l 0,0.208985 c -0.390971,0.04104 -0.755861,-0.05703 -1.09375,-0.296875 -0.417351,-0.250001 -0.621094,-0.637274 -0.621094,-1.167969 0,-1.046023 0.256673,-1.871303 0.773438,-2.478516 0.48372,-0.607108 1.352944,-1.352391 2.591797,-2.240234 l -0.205078,-0.357422 -0.564454,0.148437 -13.222656,0 z m 31.246094,0.541016 c 0.271606,0 0.556207,0.05034 0.847656,0.152343 0.304843,0.137754 0.469478,0.505268 0.496094,1.107422 l 0,2.601563 c 0,0.326541 -0.07933,0.613758 -0.238281,0.853515 -0.198722,0.250002 -0.44475,0.474777 -0.736328,0.673828 -0.245181,0.209088 -0.515171,0.412276 -0.806641,0.611329 -0.304865,0.209128 -0.563255,0.454834 -0.775391,0.730468 l 0,-5.470703 c 0,-0.602154 0.152168,-0.969668 0.457032,-1.107422 0.264962,-0.102003 0.517364,-0.152343 0.755859,-0.152343 z m -10.453125,13.480427 0.185547,0 -0.376953,1.414063 c -0.08623,0.270406 -0.245494,0.514918 -0.470703,0.734375 -0.225209,0.250002 -0.510981,0.376953 -0.855469,0.376953 l -0.470703,0 0,0.388672 4.021484,0 0,-0.363281 -0.576172,0 c -0.271563,0 -0.490189,-0.101418 -0.642578,-0.310547 -0.158819,-0.163323 -0.232422,-0.358294 -0.232422,-0.587891 0,-0.04062 0.0404,-0.233785 0.113282,-0.585937 l 0.232421,-0.97461 c 0.768568,0.158285 1.390582,0.444097 1.88086,0.857422 0.496857,0.428544 0.742187,0.933981 0.742187,1.515625 -0.0264,0.688811 -0.376786,1.259909 -1.039062,1.708985 -0.669155,0.525487 -1.504741,0.785156 -2.511719,0.785156 -0.987135,0 -1.794897,-0.259669 -2.4375,-0.785156 -0.728667,-0.449077 -1.099609,-1.020174 -1.099609,-1.708985 0,-0.698993 0.370942,-1.287158 1.099609,-1.761719 0.642603,-0.44897 1.450365,-0.682594 2.4375,-0.703125 z"
     style="fill:#3384a7;fill-opacity:1"
     id="path4142"
     inkscape:connector-curvature="0"
     sodipodi:nodetypes="ccccccccccccccccccccccccccccccccccccccccscccccccccccccccscccccccccccccscccccccccccccccscsccscccccccsccccccsccsccccscsccccsccccscscccccscscc" />
</svg>
