<?xml version="1.0" encoding="UTF-8" standalone="no"?>
<svg xmlns:rdf="http://www.w3.org/1999/02/22-rdf-syntax-ns#" xmlns="http://www.w3.org/2000/svg" viewBox="0 0 128.00036 48.000136" height="13.55mm" width="36.12mm" version="1.1" xmlns:cc="http://creativecommons.org/ns#" xmlns:dc="http://purl.org/dc/elements/1.1/">
 <g transform="translate(-53.18 -323.3)">
  <g transform="translate(53.18 323.3)">
   <path style="fill:#71706f" d="m24.29.001953c-.26 0.021-.50.1934-.59.4531l-.44 1.309c.3589-0.017.7188-.02539 1.078-.02539.3595 0 .7173.00839 1.076.02539l-.44-1.309c-.06704-.1988-.2236-.3560-.4258-.4219-.08786-.02850-.1770-.03825-.2637-.03125zm-3.775.2988v.001953c-.32.0134-.59.2409-.64.5566l-.23 1.36c.71-.147 1.42-.260 2.13-.340l-.6328-1.193v-.005859c-.09516-.1983-.2822-.3367-.5020-.3711-.0456-.007-.09223-.009813-.1367-.007813zm7.686.005859c-.2601-0.021-.5198.1110-.6484.3535l-.66 1.221c.7139.07970 1.424.1933 2.127.3398l-.20-1.17-.03-.1877c-.03344-.2070-.1629-.3871-.3516-.4844-.08208-0.042-.1672-.06537-.2539-.07227zm-11.37.8983c-.3699 0-.6703.2968-.6699.6621v1.377c.6694-.2566 1.352-.4799 2.043-.6719l-.84-1.101c-.12-.167-.32-.266-.53-.266zm15.04 0c-.2148-.0105-.4315.08106-.5703.2637l-.8359 1.104c.6913.1920 1.374.4153 2.043.6719v-1.371c0-.212-.10-.411-.27-.538-.11-.082-.24-.125-.37-.131zm-7.533 1.055c-6.083 0-11.59 2.433-15.58 6.367-3.995 3.933-6.461 9.373-6.461 15.37 0 5.647 2.184 10.79 5.762 14.66.2406.2616.4871.5178.7402.7676 3.546 3.499 8.295 5.811 13.58 6.279-.4095-.0507-.8146-.1168-1.217-.1895 1.034.1468 2.089.2266 3.164.2266 6.083 0 11.59-2.433 15.58-6.367 3.99-3.94 6.46-9.38 6.46-15.38 0-6.003-2.466-11.44-6.453-15.37-.6020-.5941-1.238-1.153-1.906-1.676.02837.1526.0528.3028.07813.4492.1046.6080.1949 1.124.3223 1.199h.0039c.0152 0.023.03066.03933.04687.04883.4308.2557.9679.7174 1.479 1.234.1576.1613.3130.3252.4609.4922.6632.7484 1.226 1.562 1.365 2.08.08766.3259.3276 1.136.6172 2.004.5528 1.016 1.018 2.085 1.391 3.195.02432.0677.04837.1376.07031.2109.6242 1.934.9609 3.996.9609 6.135 0 5.576-2.291 10.62-5.994 14.28-3.703 3.654-8.818 5.916-14.47 5.916-5.651 0-10.77-2.262-14.47-5.916-3.7-3.66-5.989-8.7-5.989-14.28 0-5.576 2.289-10.63 5.992-14.28 3.707-3.654 8.817-5.915 14.47-5.915 1.251 0 2.473.1179 3.662.3301-.3341-0.046-.6707-.08558-1.01-.1152 2.011.2523 3.932.7912 5.717 1.576.07312-.05140.1467-.1025.2207-.1523-.02432-.01-.04975-.01734-.07422-.02734.32-.219.65-.424.98-.605.15-.078.29-.154.44-.224-2.99-1.49-6.36-2.328-9.94-2.328h-.0039zm-10.97.418c-.05158-.005-.1042.0003125-.1562.00781-.3656.05865-.6146.3988-.5547.7598l.2266 1.363c.61-.361 1.25-.690 1.9-.991l-1-.957c-.12-.109-.27-.173-.42-.183zm21.98 0c-.1717-.005-.3431.05874-.4766.1855l-1 .954c.6516.3001.4098.1455 1.029.5059l.99-.209.11-.664c.03-.207-.03-.418-.18-.570-.13-.132-.30-0.2-.47-.203zm3.2 2.01c-.1292 0-.2589.03934-.3730.1172l-.5840.4004c.1105.3178.2350.6163.3262 1.023.27.210.55.425.82.647l.44-1.311c.07-.198.04-.418-.08-.591-.13-.188-.34-.288-.56-.285zm-28.51.003c-.051.005-.103.017-.154.034-.351.116-.541.491-.423.837l.447 1.315c.550-.454 1.13-.881 1.72-1.281l-1.15-.787c-.13-.090-.28-.129-.44-.116v-.00195zm-2.808 2.493c-.1025.005-.2053.02747-.2988.07617-.3281.1706-.4539.5707-.2812.8945l.6562 1.23c.474-.537.975-1.052 1.498-1.541l-1.273-.598c-.09536-0.045-.1983-.0648-.3008-.0625zm34.15 0c-.08705.005-.1742.02315-.2578.0625l-1.27.598c.5237.4897 1.022 1.004 1.496 1.541l.65-1.225c.10-.185.11-.407.02-.598-.12-.247-.37-.389-.64-.378zm-36.51 2.916c-.1543-.008-.3069.03695-.4336.1309-.2958.2189-.3575.6340-.1348.9258l.847 1.11c.381-.61.792-1.19 1.229-1.76l-1.354-.39c-.050-.01-.103-.02-.154-.02zm38.9 0c-.04459.005-.08843.01044-.1328.02344l-1.354.3887c.4373.5652.8478 1.152 1.229 1.756l.8379-1.1c.1339-.1680.1776-.3879.1172-.5938-.08994-.3064-.3868-.4992-.6973-.4746zm2.016 3.254c-.04459-.005-.09071-.0041-.1367.0059l-1.4.1699c.3405.6283.6501 1.272.9277 1.93l.9805-.9277.0059-.0039c.1750-.1448.2640-.3655.2363-.5898-.03902-.3181-.3016-.5571-.6133-.5820v-.002zm-42.93.0059c-.1541.017-.3002.08636-.4102.1992-.2566.2633-.2497.6825.01758.9355l1.02.9648c.2776-.6578.5872-1.301.9277-1.93l-1.218-.15-.186-.02c-.05244-.0065-.1049-.0065-.1562 0zm.101 3.46-1.414.06c-0.21.009-.4016.1138-.5215.2852-.2102.3004-.1330.7127.1719.9199l1.164.7930c.166-.69.367-1.38 0.6-2.05zm42.74 0c.2331.6741.4314 1.36.5977 2.053l1.158-.7871c.1764-.1199.2885-.3111.2969-.5234.01419-.3647-.2750-.6731-.6445-.6875l-1.408-.05469zm-43.63 3.477-1.342.2676h-.005859c-.2256.03-.4165.16-.5133.37-.1581.33-.0143.72.3203.88l1.283.5996c.05108-.7118.1360-1.419.2559-2.123zm44.52 0c.1199.7038.2049 1.413.2559 2.125l1.104-.5176.1816-.08398c.1923-.08965.3293-.2606.3711-.4668.07251-.3581-.1653-.7067-.5273-.7793l-1.39-.27zm-44.84 3.566-1.16.4336v.0059l-.1699.0625c-.1986.07395-.3497.2336-.4082.4355-.1015.3509.1062.7174.4609.8184l1.371.39c-.05944-.6601-.08984-1.324-.08984-1.986v-.1543-.002zm45.15 0v.1562c0 .6628-.0304 1.324-.08984 1.984l1.316-.375h.0059c.2235-.0475.4076-.2023.4883-.4141.1306-.3421-.0462-.7243-.3926-.8535l-1.328-.4980zm-.2656 3.576v.002c-.1105.7067-.2564 1.407-.4355 2.1l1.227-.1445v-.0059l.1875-.02148c.2107-.025.3961-.1442.5020-.3262.1840-.3161.07189-.7224-.2480-.9043l-1.232-.6992zm-44.62.0039-1.178.6680-.007813.0039c-0.21.0978-.3535.2951-.3809.5234-.04358.3641.2215.6925.5898.7363l1.412.1680c-.1789-.6923-.3250-1.394-.4355-2.1zm.8418 3.484-1.098.8828c-.1647.1325-.2603.3325-.2520.5430.01419.3643.3257.6519.6953.6367l1.426-.05859c-.281-.65-.537-1.32-.762-2zm42.94 0c-.2245.6796-.4815 1.349-.7715 2.004l1.426.05859c.2102.0085.4140-.08298.5469-.2441.2334-.2834.1890-.7011-.09766-.9316l-1.104-.8867zm-41.53 3.3-.935 1.04c-.1501.1571-.2138.3738-.1699.5859.07383.3574.4288.5909.7910.5176l1.404-.28c-.393-.60-.756-1.22-1.09-1.86zm40.13 0c-.3331.6360-.6980 1.256-1.092 1.857l1.41.29c.2064.0415.4202-.01454.5781-.1523.2765-.2415.3040-.6608.05859-.9336l-.9492-1.057zm44.33.4707v.1016c.2078.018.3410.05536.4004.1094.05938.05401.08789.1789.08789.3770v2.338c0 .2160-.02636.3593-.08203.4277-.05567.06842-.191.1083-.4062.1191v.1016h1.547v-.1016c-.2004-.0108-.3314-.04816-.3945-.1094-.06309-.06121-.0957-.1861-.0957-.3770v-2.75h1.688v2.689c0 .2160-.02832.3593-.08398.4277-.05567.06842-.1910.1083-.4062.1191v.1016h1.547v-.1016c-.2004-.0108-.3314-.04816-.3945-.1094-.06309-.06121-.09375-.1861-.09375-.3770v-2.398c0-.1944.02851-.3193.08789-.3770.06309-.05761.1963-.09497.4004-.1094v-.1016h-3.801zm-31.05 1.09c-.2078 0-.3933.03028-.5566.08789-.05567.0252-.1059.03711-.1504.03711-.02227 0-.04843-.01416-.07813-.04297l-.0098-.01172h-.0625l-.02148.7344h.08398c.05196-.2196.1502-.3819.2949-.4863.1484-.1080.3057-.1621.4727-.1621.2561 0 .4437.08437.5625.25s.1844.3659.1992.6035c-.07422.1008-.1746.1523-.3008.1523-.0668 0-.1738-.02802-.3223-.08203-.1484-.05401-.2512-.08008-.3105-.08008-.1744 0-.3250.07533-.4512.2266l.05469.05859c.07051-.06121.1578-.0918.2617-.0918.0668 0 .1736.03028.3184.08789.1484.05401.2555.08008.3223.08008.09278 0 .1822-.02125.2676-.06445.08536-.04321 0.14-.09247.1660-.1465 0 .7814-.2880 1.172-.8633 1.172-.1188 0-.2433-.03089-.3770-.0957-.1336-.06841-.2404-.1528-.3184-.25l-.1055.08203c.2487.3205.5695.4805.9629.4805.3377 0 .6279-.1246.8691-.3730.2449-.2520.3672-.5486.3672-.8906 0-.3817-.1113-.6898-.3340-.9238s-.5369-.3516-.9414-.3516zm5.377 0c-.3266 0-.6125.1223-.8574.3672-.2412.2448-.3613.5671-.3613.9668 0 .3529.09823.6442.2949.8711.2004.2232.4556.3340.7637.3340.1225 0 .2404-.02351.3555-.07031.1150-.05041.2088-.1045.2793-.1621.07051-.05761.1404-.1329.2109-.2266.07423-.09362.1244-.1641.1504-.2109.0297-.04681.0625-.1057.09961-.1777l-.07813-.04883c-.1336.1872-.258.3189-.3730.3945-.1150.07561-.2525.1133-.4121.1133-.2524 0-.4598-.09658-.6230-.2910-.1596-.1980-.2383-.4521-.2383-.7617 0-.2773.06776-.5029.2051-.6758.1410-.1764.3244-.2656.5508-.2656.1002 0 .1723.01868.2168.05469.04453.03601.08163.1043.1113.2051l.03516.1191c.04825.1656.1355.2480.2617.2480.07422 0 .1355-.02125.1875-.06445.05196-.04681.07813-.1009.07813-.1621 0-.1512-.08514-.2807-.2559-.3887-.1670-.1116-.3678-.1680-.6016-.1680zm7.137 0c-.3006.1152-.5670.2070-.8008.2754v.08789c.0334-.0036.07929-.0059.1387-.0059.09278 0 .1539.01899.1836.05859.02969.03961.04492.1220.04492.2480v2.529c0 .1404-.02402.2325-.07227.2793-.04824.04681-.1531.0774-.3164.0918v.0918h1.346v-.0957c-.2078-.0036-.3410-.03162-.4004-.08203-.05938-.04681-.08984-.1550-.08984-.3242v-.8477c.09649.09002.1838.1512.2617.1836.08165.03241.1820.04883.3008.04883.3303 0 .6074-.1339.8301-.4004.2264-.2665.3398-.5958.3398-.9883 0-.3349-.08729-.6101-.2617-.8262-.1744-.2160-.3970-.3242-.6680-.3242-.2969 0-.5652.1433-.8027.4277v-.4160l-.0332-.01172zm3.234 0c-.3266 0-.6125.1223-.8574.3672-.2412.2448-.3613.5671-.3613.9668 0 .3529.09823.6442.2949.8711.2004.2232.4556.3340.7637.3340.1225 0 .2404-.02351.3555-.07031.1150-.05041.2088-.1045.2793-.1621.07051-.05761.1404-.1329.2109-.2266.07423-.09362.1244-.1641.1504-.2109.0297-.04681.0625-.1057.09961-.1777l-.07813-.04883c-.1336.1872-.2580.3189-.3730.3945-.1150.07561-.2525.1133-.4121.1133-.2524 0-.4598-.09658-.6230-.2910-.1596-.1980-.2383-.4521-.2383-.7617 0-.2773.06776-.5029.2051-.6758.1410-.1764.3244-.2656.5508-.2656.1002 0 .1723.01868.2168.05469.04453.03601.08163.1043.1113.2051l.03516.1191c.04825.1656.1336.2480.2598.2480.07422 0 .1375-.02125.1895-.06445.05196-.04681.07813-.1009.07813-.1621 0-.1512-.08514-.2807-.2559-.3887-.1670-.1116-.3678-.1680-.6016-.1680zm12.46 0c-.3637 0-.6605.1198-.8906.3574-.2264.2340-.3398.5354-.3398.9062 0 .3637.1156.6692.3457.9141.2338.2412.5242.3613.8730.3613.3489 0 .6433-.1269.8809-.3789.2375-.2520.3555-.5650.3555-.9395-.0000010-.3529-.1156-.6446-.3457-.875s-.5226-.3457-.8789-.3457zm7.916 0c-.3414 0-.6209.1223-.8398.3672-.2153.2412-.3242.5632-.3242.9629 0 .3709.09374.6651.2793.8848.1893.2160.4426.3242.7617.3242.2635 0 .4990-.07759.7031-.2324s.3635-.3783.4785-.6699l-.08984-.03711c-.1336.2052-.2668.3511-.4004.4375-.1299.08642-.2848.1289-.4629.1289-.1002 0-.1963-.01642-.2891-.04883-.08907-.03601-.1785-.09266-.2676-.1719-.08907-.08282-.1611-.2052-.2168-.3672-.05567-.1656-.08632-.3630-.09375-.5898h1.713c-.04082-.3313-.1391-.5782-.2949-.7402-.1559-.1656-.3742-.2480-.6562-.2480zm2.031 0c-.3006.1152-.5670.2070-.8008.2754v.08789c.0334-.0036.07929-.0059.1387-.0059.09278 0 .1539.01899.1836.05859.02969.03961.04492.1220.04492.2480v2.529c0 .1404-.02402.2325-.07227.2793-.04824.04681-.1531.0774-.3164.0918v.0918h1.346v-.0957c-.2078-.0036-.3410-.03162-.4004-.08203-.05938-.04681-.08789-.1550-.08789-.3242v-.8477c.09649.09002.1818.1512.2598.1836.08165.03241.1820.04883.3008.04883.3303 0 .6074-.1339.8301-.4004.2264-.2665.3398-.5958.3398-.9883 0-.3349-.08729-.6101-.2617-.8262-.1744-.2160-.3970-.3242-.6680-.3242-.2969 0-.5633.1433-.8008.4277v-.4160l-.03516-.01172zm6.754 0c-.3266 0-.6125.1223-.8574.3672-.2412.2448-.3613.5671-.3613.9668 0 .3529.0982.6442.2949.8711.2004.2232.4537.3340.7617.3340.1225 0 .2404-.02351.3555-.07031.1150-.05041.2088-.1045.2793-.1621.0705-.05761.1404-.1329.2109-.2266.0742-.09362.1244-.1641.1504-.2109.0297-.04681.0645-.1057.1016-.1777l-.0781-.04883c-.1336.1872-.2580.3189-.3730.3945-.1150.07561-.2525.1133-.4121.1133-.2524 0-.4617-.09658-.625-.2910-.1596-.1980-.2383-.4521-.2383-.7617 0-.2773.0678-.5029.2051-.6758.1410-.1764.3264-.2656.5527-.2656.1002 0 .1723.01868.2168.05469s.0816.1043.1113.2051l.0332.1191c.0482.1656.1355.2480.2617.2480.0742 0 .1375-.02125.1895-.06445.052-.04681.0781-.1009.0781-.1621 0-.1512-.0851-.2807-.2559-.3887-.1670-.1116-.3678-.1680-.6016-.1680zm4.977 0c-.3637 0-.6605.1198-.8906.3574-.2264.2340-.3398.5354-.3398.9062 0 .3637.1156.6692.3457.9141.2338.2412.5242.3613.8730.3613.3489 0 .6414-.1269.8789-.3789s.3574-.5650.3574-.9395c0-.3529-.1156-.6446-.3457-.875s-.5226-.3457-.8789-.3457zm12.57 0c-.3006.1152-.5670.2070-.8008.2754v.08789c.0335-.0036.0793-.0059.1387-.0059.0927 0 .1539.01899.1836.05859.0297.03961.0449.1220.0449.2480v2.529c0 .1404-.024.2325-.0723.2793-.0482.04681-.1551.0774-.3184.0918v.0918h1.348v-.0957c-.2079-.0036-.3411-.03162-.4004-.08203-.0593-.04681-.0898-.1550-.0898-.3242v-.8477c.0965.09002.1838.1512.2617.1836.0816.03241.1820.04883.3008.04883.3303 0 .6074-.1339.8301-.4004.2264-.2665.3398-.5958.3398-.9883 0-.3349-.0873-.6101-.2617-.8262-.1744-.2160-.3971-.3242-.6680-.3242-.2969 0-.5652.1433-.8027.4277v-.4160l-.0332-.01172zm3.057 0c-.2635 0-.4861.06086-.6680.1797-.1781.1152-.2676.2565-.2676.4258 0 .06121.024.1153.0723.1621.0483.04681.1049.07031.1680.07031.0668 0 .1236-.02125.1719-.06445.052-.04681.0781-.1009.0781-.1621 0-.0144-.004-.04724-.0156-.09766-.007-.05041-.0117-.09033-.0117-.1191 0-.07201.0392-.1332.1172-.1836.0779-.05401.1719-.08008.2832-.08008.2820 0 .4238.1484.4238.4473v.3301c-.0482.018-.1246.04633-.2285.08594s-.1802.07019-.2285.0918c-.0482.01799-.1182.04632-.2109.08594-.0891.03601-.1566.06885-.2012.09766-.0445.02521-.0992.06031-.1660.1035-.0667.0396-.1169.07953-.1504.1191-.0334.03961-.0704.08435-.1074.1348-.0372.04681-.0614.09864-.0762.1562-.0148.05401-.0234.1129-.0234.1777 0 .1692.0545.3080.1621.4160.1113.1080.2512.1621.4219.1621.2227 0 .4953-.1317.8144-.3945.0148.1404.0476.2415.0996.3027.0557.06121.1408.0918.2559.0918.0928 0 .1736-.01868.2441-.05469.0742-.03961.1613-.1104.2578-.2148v-.1406c-.0854.06841-.1682.1016-.2461.1016-.0631-.000001-.1068-.02125-.1328-.06445-.0223-.04681-.0332-.1292-.0332-.2480v-1.053c0-.2917-.0588-.5080-.1738-.6484-.1150-.1440-.3246-.2168-.6289-.2168zm3.658 0c-.2152 0-.4029.04444-.5625.1309-.1596.08642-.2795.1946-.3574.3242-.078.1260-.1348.2461-.1719.3613-.0333.1116-.0508.2127-.0508.3027h-.3613v-.5898c0-.1476.0219-.2442.0664-.2910.0445-.05041.1426-.08551.2910-.1035v-.08008h-1.182v.08008c.1484.018.2465.0531.2910.1035.0445.04681.0664.1434.0664.2910v1.404c0 .1872-.0238.3093-.0684.3633-.0445.05401-.1406.08942-.2891.1074v.08008h1.182v-.08008c-.1484-.018-.2465-.05341-.2910-.1074-.0445-.05401-.0664-.1760-.0664-.3633v-.6367h.3613c0 .3529.1025.6471.3066.8848.2078.2376.4828.3574.8242.3574.3451 0 .6224-.1246.8340-.3730 0-.24.1-.56.1-.94 0-.3601-.1047-.6540-.3125-.8809-.2041-.2268-.4793-.3398-.8281-.3398zm-65.67.02734c-.1113.0000010-.2160.05409-.3125.1621-.09278.1080-.1648.2397-.2168.3945-.04453.1368-.1144.2614-.2109.3730-.09649.1080-.1902.1621-.2793.1621h-.1602v-.5898c0-.1476.02187-.2442.06641-.2910.04453-.05041.1406-.08551.2891-.1035v-.08008h-1.18v.08008c.1484.018.2445.0531.2891.1035.04453.04681.06641.1434.06641.2910v1.48c0 .1476-.02187.2465-.06641.2969-.04453.04681-.1406.07965-.2891.09766v.08008h1.18v-.08008c-.1484-.01801-.2445-.05085-.2891-.09766-.04453-.05041-.06641-.1492-.06641-.2969v-.7129c.1781 0 .2896.03541.3379.1074l.6973 1.08h.7676v-.08008c-.1225-.0072-.2055-.02136-.25-.04297-.04082-.02161-.1019-.08247-.1836-.1797-.04825-.06481-.1332-.1968-.2520-.3984s-.2301-.352-.3340-.4492c-.1002-.1008-.2182-.1623-.3555-.1875v-.01172c.09649-.05401.1773-.1435.2441-.2695.0668-.1296.1213-.2423.1621-.3359.04082-.09722.08437-.1445.1289-.1445.03341 0 .07285.01898.1211.05859.06309.05401.1242.08203.1836.08203.06309 0 .1154-.02351.1562-.07031.04453-.04681.06641-.1054.06641-.1738 0-.07922-.02636-.1404-.08203-.1836-.05196-.04681-.1283-.07031-.2285-.07031zm4.965 0c-.1113.0000010-.2141.05409-.3105.1621-.09278.1080-.1668.2397-.2188.3945-.04453.1368-.1144.2614-.2109.3730-.09649.1080-.1883.1621-.2773.1621h-.1621v-.5898c0-.1476.02187-.2442.06641-.2910.04453-.05041.1406-.08551.2891-.1035v-.08008h-1.18v.08008c.1485.018.2445.0531.2891.1035.04453.04681.06836.1434.06836.2910v1.48c0 .1476-.02383.2465-.06836.2969-.04453.04681-.1406.07965-.2891.09766v.08008h1.18v-.08008c-.1484-.01801-.2445-.05085-.2891-.09766-.04453-.05041-.06641-.1492-.06641-.2969v-.7129c.1781 0 .2916.03541.3398.1074l.6953 1.08h.7676v-.08008c-.1225-.0072-.2055-.02136-.25-.04297-.04082-.02161-.1019-.08247-.1836-.1797-.04824-.06481-.1312-.1968-.25-.3984s-.2301-.352-.3340-.4492c-.1002-.1008-.2201-.1623-.3574-.1875v-.01172c.09649-.05401.1793-.1435.2461-.2695.0668-.1296.1193-.2423.1602-.3359.04082-.09722.08437-.1445.1289-.1445.0334 0 .0748.01898.1230.05859.06309.05401.1242.08203.1836.08203.06309 0 .1154-.02351.1562-.07031.04453-.04681.06641-.1054.06641-.1738 0-.07922-.02832-.1404-.08398-.1836-.05196-.04681-.1283-.07031-.2285-.07031zm39.53 0c-.1113.0000010-.2141.05409-.3106.1621-.0927.1080-.1648.2397-.2168.3945-.0445.1368-.1164.2614-.2129.3730-.0965.1080-.1883.1621-.2774.1621h-.1621v-.5898c0-.1476.0219-.2442.0664-.2910.0445-.05041.1426-.08551.2910-.1035v-.08008h-1.182v.08008c.1485.018.2465.0531.2910.1035.0445.04681.0664.1434.0664.2910v1.48c0 .1476-.0219.2465-.0664.2969-.0445.04681-.1426.07965-.2910.09766v.08008h1.182v-.08008c-.1484-.01801-.2465-.05085-.2910-.09766-.0445-.05041-.0664-.1492-.0664-.2969v-.7129c.1781 0 .2916.03541.3398.1074l.6953 1.08h.7695v-.08008c-.1225-.0072-.2074-.02136-.2520-.04297-.0408-.02161-.1020-.08247-.1836-.1797-.0482-.06481-.1312-.1968-.25-.3984s-.2301-.352-.3340-.4492c-.1002-.1008-.2182-.1623-.3555-.1875v-.01172c.0965-.05401.1773-.1435.2441-.2695.0668-.1296.1213-.2423.1621-.3359.0408-.09722.0824-.1445.1270-.1445.0334 0 .0748.01898.1230.05859.0631.05401.1243.08203.1836.08203.0631 0 .1154-.02351.1562-.07031.0445-.04681.0664-.1054.0664-.1738 0-.07922-.0282-.1404-.084-.1836-.052-.04681-.1283-.07031-.2285-.07031zm12.87 0c-.1113.0000010-.216.05409-.3125.1621-.0927.1080-.1648.2397-.2168.3945-.0445.1368-.1144.2614-.2109.3730-.0965.1080-.1902.1621-.2793.1621h-.1602v-.5898c0-.1476.0219-.2442.0664-.2910.0445-.05041.1406-.08551.2891-.1035v-.08008h-1.18v.08008c.1484.018.2445.0531.2891.1035.0445.04681.0664.1434.0664.2910v1.48c0 .1476-.0219.2465-.0664.2969-.0445.04681-.1406.07965-.2891.09766v.08008h1.18v-.08008c-.1485-.01801-.2445-.05085-.2891-.09766-.0445-.05041-.0664-.1492-.0664-.2969v-.7129c.1781 0 .2916.03541.3398.1074l.6953 1.08h.7676v-.08008c-.1225-.0072-.2055-.02136-.25-.04297-.0408-.02161-.1020-.08247-.1836-.1797-.0482-.06481-.1312-.1968-.25-.3984s-.2301-.352-.3340-.4492c-.1002-.1008-.2201-.1623-.3574-.1875v-.01172c.0965-.05401.1793-.1435.2461-.2695.0668-.1296.1194-.2423.1602-.3359.0408-.09722.0844-.1445.1289-.1445.0334 0 .0748.01898.1230.05859.0631.05401.1243.08203.1836.08203.0631 0 .1135-.02351.1543-.07031.0445-.04681.0684-.1054.0684-.1738 0-.07922-.0283-.1404-.084-.1836-.052-.04681-.1283-.07031-.2285-.07031zm-51.86.02734v.07617c.1447.0216.2387.07826.2832.1719l.7344 1.533c.1633.3169.2461.5001.2461.5469 0 .1044-.05878.2670-.1738.4902s-.2242.3359-.3281.3359c-.02227 0-.07909-.01642-.1719-.04883-.09278-.03241-.1801-.04883-.2617-.04883-.06309 0-.1197.02351-.1680.07031-.04825.04681-.07227.1032-.07227.1680 0 .09002.03925.1631.1172.2207.07793.06121.1762.0918.2949.0918.1856 0 .3514-.08241.4961-.2480.1484-.1656.2969-.4432.4453-.8320l.8574-2.203c.0334-.08642.06835-.1453.1055-.1777.04082-.03601.09531-.05921.1621-.06641v-.08008h-.7520v.08008c.1781 0 .2676.0467.2676.1367 0 .02881-.0086.05939-.02344.0918l-.5391 1.49-.6406-1.367c-.03711-.08281-.05664-.1511-.05664-.2051 0-.05041.02402-.08581.07227-.1074.04825-.0216.1332-.03546.2520-.03906v-.08008h-1.146zm7.826 0v.08008c.1484.018.2445.0531.2891.1035.04453.04681.06641.1434.06641.2910v1.48c0 .1476-.02187.2465-.06641.2969-.04453.04681-.1406.07965-.2891.09766v.08008h1.18v-.08008c-.1299-.01441-.2193-.04243-.2676-.08203-.04824-.04321-.07461-.1279-.08203-.2539l1.086-1.316v1.258c0 .1476-.02383.2465-.06836.2969-.04453.04681-.1406.07965-.2891.09766v.08008h1.18v-.08008c-.1484-.01801-.2445-.05085-.2891-.09766-.04453-.05041-.06641-.1492-.06641-.2969v-1.48c0-.1476.02187-.2442.06641-.2910.04453-.05041.1406-.08551.2891-.1035v-.08008h-1.18v.08008c.1299.0144.2193.04468.2676.08789.04824.03961.07656.1220.08398.2480l-1.086 1.318v-1.26c0-.1476.02187-.2442.06641-.2910.04453-.05041.1406-.08551.2891-.1035v-.08008h-1.18zm2.918 0v.08008c.1484.018.2445.0531.2891.1035.04453.04681.06641.1434.06641.2910v1.48c0 .1476-.02187.2465-.06641.2969-.04453.04681-.1406.07965-.2891.09766v.08008h1.18v-.08008c-.1299-.01441-.2193-.04243-.2676-.08203-.04824-.04321-.07656-.1279-.08398-.2539l1.086-1.316v1.258c0 .1476-.02187.2465-.06641.2969-.04453.04681-.1406.07965-.2891.09766v.08008h1.18v-.08008c-.1484-.01801-.2445-.05085-.2891-.09766-.04453-.05041-.06836-.1492-.06836-.2969v-1.48c0-.1476.02383-.2442.06836-.2910.04453-.05041.1406-.08551.2891-.1035v-.08008h-1.18v.08008c.1299.0144.2174.04468.2656.08789.04824.03961.07656.1220.08398.2480l-1.086 1.318v-1.26c0-.1476.02383-.2442.06836-.2910.04453-.05041.1406-.08551.2891-.1035v-.08008h-1.18zm4.309 0v.08008c.1484.018.2445.0531.2891.1035.04453.04681.06641.1434.06641.2910v1.48c0 .1476-.02187.2465-.06641.2969-.04453.04681-.1406.07965-.2891.09766v.08008h1.18v-.08008c-.1485-.01801-.2445-.05085-.2891-.09766-.04453-.05041-.06836-.1492-.06836-.2969v-1.643c0-.1008.03925-.1504.1172-.1504h.8574c.07794 0 .1172.04957.1172.1504v1.643c0 .1476-.02187.2465-.06641.2969-.04453.04681-.1406.07965-.2891.09766v.08008h1.18v-.08008c-.1484-.01801-.2445-.05085-.2891-.09766-.04453-.05041-.06836-.1492-.06836-.2969v-1.48c0-.1476.02383-.2442.06836-.2910.04453-.05041.1406-.08551.2891-.1035v-.08008h-2.738zm16.06 0v.08008c.1410.0108.2348.04816.2793.1094.04825.06121.07227.1765.07227.3457v1.42c0 .1476-.02187.2465-.06641.2969-.04453.04681-.1406.07965-.2891.09766v.08008h.9062v-.08008c-.1484-.01801-.2445-.05085-.2891-.09766-.04453-.05041-.06641-.1492-.06641-.2969v-1.691l.8516 1.988c.04453.1044.07519.1727.09375.2051.01855.03241.03808.04883.05664.04883.02969 0 .08203-.0895.1562-.2695l.8066-1.973v1.691c0 .1476-.0219.2465-.0664.2969-.0445.04681-.1426.07965-.2910.09766v.08008h1.182v-.08008c-.1484-.01801-.2465-.05085-.2910-.09766-.0445-.05041-.0664-.1492-.0664-.2969v-1.48c0-.1476.0219-.2442.0664-.2910.0445-.05041.1426-.08551.2910-.1035v-.08008h-.9355l-.7188 1.814-.7461-1.814h-.9355zm11.22 0v.08008c.1410.0108.2328.04816.2773.1094.0483.06121.0723.1765.0723.3457v1.42c0 .1476-.0219.2465-.0664.2969-.0445.04681-.1406.07965-.2891.09766v.08008h.9062v-.08008c-.1485-.01801-.2445-.05085-.2891-.09766-.0445-.05041-.0664-.1492-.0664-.2969v-1.691l.8516 1.988c.0445.1044.0752.1727.0937.2051.0185.03241.0381.04883.0566.04883.0297 0 .082-.0895.1562-.2695l.8066-1.973v1.691c0 .1476-.0219.2465-.0664.2969-.0445.04681-.1406.07965-.2891.09766v.08008h1.18v-.08008c-.1484-.01801-.2445-.05085-.2891-.09766-.0445-.05041-.0684-.1492-.0684-.2969v-1.48c0-.1476.0238-.2442.0684-.2910.0445-.05041.1406-.08551.2891-.1035v-.08008h-.9356l-.7188 1.814-.7461-1.814h-.9336zm3.451 0v.07617c.1447.0216.2387.07826.2832.1719l.7344 1.533c.1633.3169.2461.5001.2461.5469 0 .1044-.0588.2670-.1738.4902s-.2242.3359-.3281.3359c-.0223 0-.0791-.01642-.1719-.04883s-.1801-.04883-.2617-.04883c-.0631 0-.1197.02351-.1680.07031-.0482.04681-.0723.1032-.0723.1680 0 .09002.0392.1631.1172.2207.0779.06121.1762.0918.2949.0918.1856 0 .3514-.08241.4961-.2480.1484-.1656.2969-.4432.4453-.8320l.8574-2.203c.0334-.08642.0684-.1453.1055-.1777.0408-.03601.0953-.05921.1621-.06641v-.08008h-.7520v.08008c.1781 0 .2676.0467.2676.1367 0 .02881-.009.05939-.0234.0918l-.7 1.48-.6-1.37c-.0371-.08281-.0567-.1511-.0567-.2051 0-.05041.026-.08581.0742-.1074.0482-.0216.1312-.03546.25-.03906v-.08008h-1.146zm-26.66.09766c.2338 0 .4258.1156.5742.3496s.2227.5373.2227.9082c0 .3061-.06093.5459-.1797.7188-.1188.1728-.2805.2598-.4883.2598-.2338 0-.4236-.1362-.5684-.4062-.1447-.2701-.2168-.5971-.2168-.9824.0000010-.2556.05898-.4604.1777-.6152.1225-.1548.2818-.2324.4785-.2324zm21.68 0c.2338 0 .4238.1156.5723.3496.1484.2340.2227.5373.2227.9082 0 .3061-.059.5459-.1777.7188-.1188.1728-.2824.2598-.4902.2598-.2338 0-.4217-.1362-.5664-.4062-.1447-.2701-.2188-.5971-.2188-.9824 0-.2556.0609-.4604.1797-.6152.1225-.1548.2818-.2324.4785-.2324zm19.29 0c.4676 0 .7012.4613.7012 1.387 0 .2448-.048.4493-.1445.6113-.0965.1584-.2404.2383-.4297.2383-.4676 0-.7012-.4633-.7012-1.389 0-.2448.048-.4470.1445-.6055.0965-.1620.2404-.2422.4297-.2422zm-33.14.04297c.1707 0 .2951.04475.3730.1348.07793.09002.1367.2523.1738.4863h-1.137c.05938-.4141.2558-.6211.5898-.6211zm-22.85.1289c.2078-.0000010.3736.09627.4961.2871.1262.1872.1895.4367.1895.75 0 .2989-.06327.5413-.1895.7285-.1225.1836-.2840.2754-.4844.2754-.1299 0-.2607-.03797-.3906-.1172-.1262-.07922-.1895-.1591-.1895-.2383v-1.328c0-.07922.06308-.1591.1855-.2383.1262-.07922.2529-.1191.3828-.1191zm25.64 0c.2078-.0000010.3736.09627.4961.2871.1262.1872.1895.4367.1895.75 0 .2989-.06327.5413-.1895.7285-.1225.1836-.2840.2754-.4844.2754-.1299 0-.2607-.03797-.3906-.1172-.33-.08-.39-.16-.39-.24v-1.328c0-.07922.06112-.1591.1836-.2383.1262-.07922.2529-.1191.3828-.1191zm24.3 0c.2078-.0000010.3736.09627.4961.2871.1262.1872.1894.4367.1894.75 0 .2989-.0633.5413-.1894.7285-.1225.1836-.2840.2754-.4844.2754-.1299 0-.2607-.03797-.3906-.1172-.1262-.07922-.1895-.1591-.1895-.2383v-1.328c0-.07922.0631-.1591.1856-.2383.1262-.07922.2529-.1191.3828-.1191zm2.807.7129v.7832c0 .08282-.0108.1417-.0293.1777-.0186.03601-.0559.07111-.1152.1035-.1447.08282-.2801.125-.4062.125-.0854 0-.166-.03736-.2402-.1094-.0742-.07201-.1113-.1805-.1113-.3281 0-.1584.0676-.2946.2012-.4062s.3672-.2269.7012-.3457zm-117.6.44-.767 1.2c-.1138.1772-.1363.3953-.06055.5918.1320.3421.5205.5129.8672.3828l1.345-.50c-.488-.54-.951-1.09-1.385-1.67zm36.29 0c-.4338.5775-.8949 1.134-1.383 1.668l1.33.5c.2020.0808.4288.06071.6133-.05469.3125-.1956.4070-.6078.2090-.9160l-.76-1.2zm-33.9 2.7-.566 1.31c-.08295.1916-.06879.4114.03711.5918.1856.3162.5975.4232.9180.2402l1.241-.71c-.565-.45-1.109-.93-1.63-1.43zm31.52 0c-.5211.5015-1.065.9779-1.633 1.428l1.244.7109c.1832.1046.4045.1192.5996.03711.3393-.1426.5005-.5341.3555-.8691l-.57-1.31zm-28.72 2.287-.3359 1.338v.0059c-.06643.2130-.0206.4422.1230.6152.2349.2833.6602.3256.9473.09375l1.11-.91c-.63-.36-1.25-.74-1.85-1.15zm25.93 0c-.5960.4135-1.212.7976-1.846 1.152l.9609.7773.1543.1230c.1631.1316.3791.1806.5840.1309.3582-.0869.5810-.4491.4922-.8027l-.3457-1.381zm-22.8 1.816-.1016 1.232-.01563.1875c-.01621.2074.06646.4068.2246.5449.2758.2409.7012.2158.9453-.05664l.9551-1.062c-.6827-.2492-1.353-.5324-2.008-.8457zm19.67 0c-.6550.3133-1.325.5964-2.008.8457l.9141 1.02.0059.0039c.1385.1808.3602.2814.5898.2637.3685-.0285.6474-.3486.6172-.7129l-.1172-1.42h-.002zm-16.29 1.301.09961 1.229l.01.18c.01672.2090.1305.3979.3105.5098.3124.1941.7289.09887.9258-.2090l.7695-1.201c-.7149-.1371-1.423-.3067-2.121-.5117zm12.91 0c-.6979.2051-1.406.3748-2.121.5117l.7422 1.162.0059.0059c.1092.1972.3094.3262.5371.3438.3690.0285.6933-.2475.7227-.6113l.1133-1.412zm-9.355.7383.3438 1.385c.05067.2030.1935.3692.3887.4512.3395.1425.7365-.01429.8809-.3496l.5664-1.314c-.7288-.0225-1.456-.08022-2.18-.1719zm5.805 0c-.7232.0917-1.451.1490-2.18.1719l.5625 1.307c.08381.1945.2519.3399.4609.3906.3584.08695.7225-.1305.8105-.4844l.3457-1.385z"/>
   <path style="fill:#603a23" d="m23.93 4.592c-5.71.024-11.64 2.639-15.62 7.718-3.837 4.91-4.687 12.77-3.421 16.3.2914.8134.7587 1.358 1.23.9316.3945-.3566 1.002-1.442 1.701-1.879.6992-.4373 2.601 3.344 3.877 4.77s3.222 1.079 4.199 1.072c.9768-.007 2.811-2.007 4.105-3.273 1.294-1.267.5508-3.758.5508-3.758s-1.481.5616-2.576.4316c-1.095-.1299-2.287-1.242-2.545-2.518-.2575-1.276.9058-1.5 1.383-2.467.4771-.9664.8835-2.502.7793-2.895-.1043-.3923.9629-1.6.9629-1.6s1.02 2.922 1.465 3.98c1.105 2.633 2.251 5.206 2.604 5.145.3387-.2088-.6980-1.405-.4453-1.938 1.158.8524 1.683 2.758 2.232 2.959.4437-.005-.5017-2.123-1.049-3.104.6392.6112 1.269 1.237 1.562 2.039.1827.5002.2290.9575 1.111 1.018.7021.048.6601.01974.4492-.7090-.2822-.9758-.9463-1.878-1.467-2.871 1.212.9757 1.706 1.685 1.971 2.781.1441.5968.2388.9465.7266.2422.08173-.1179.1664-.2490.2480-.3789.4948-.7874.08671-1.289-.5859-2.055-.5904-.6717-.8139-.9259-1.404-1.598.5883.3095 1.175.6182 1.764.9277.7630.4014.7157.5342 1.553.3379 0.46-.1079.4033-.4248-.2051-.8574-.40-.32-.86-.76-1.27-.97-.8528-.4461-3.013-3.982-.01367-6.352s6.396 2.601 6.906 3.6c.5101.9989 1.495 3.659 2.197 3.438.7024-.2211 1.14-.3451 1.869-.5664-1.105-1.527-1.913-3.065-2.533-4.609 2.316 1.657 3.086 3.306 4.217 3.963 0 0 3.318-.1757 3.65-.7676.3319-.5919-.9378-2.607-1.527-3.291-.5895-.6838-1.649-4.203-1.857-4.988-.2086-.7847-1.96-2.778-2.955-3.375-.98-.602-.44-2.973-1.71-4.586-1.31.244-2.43.805-3.63 1.861-2.54-1.428-5.46-2.126-8.45-2.113zm11.59 1.189c.08832-.02350.3163.8109.3398.9668.08837.5952.1173 1.982-.3633 2.414-.4336.3893-1.246-.2572-1.537-.4531-1.013-.6814.9155-2.38 1.42-2.807.06668-.05640.05555-.09849.1406-.1211zm60.71 5.803c-2.434.4643-4.181 1.698-5.232 3.688-1.058 2.005-1.567 4.323-1.541 6.951 0 .8367.2040 1.887.6074 3.152l1.721 5.367c.1521.4695.2246.8011.2246 1 0 .1735-.03878.3074-.1113.4043-.07955.1225-.1936.1943-.3457.2148v.3105c1.23-.2092 2.29-.6480 3.17-1.316.8398-.6582 1.528-1.485 2.07-2.48 1.005-2.102 1.5-4.392 1.5-6.861-.01987-.9950-.2510-2.195-.6875-3.588l-1.521-4.715c-.1786-.4439-.2715-.8719-.2715-1.285 0-.3265.1403-.5061.4180-.5469v-.2949zm19.96 0c-2.434.4643-4.181 1.698-5.232 3.688-1.058 2.005-1.567 4.323-1.541 6.951 0 .8367.2059 1.887.6094 3.152l1.719 5.367c.1521.4695.2266.8011.2266 1 0 .1735-.0406.3074-.1133.4043-.0794.1225-.1916.1943-.3438.2148v.3105c1.23-.2092 2.288-.6480 3.168-1.316.8399-.6582 1.528-1.485 2.07-2.48 1.005-2.102 1.502-4.392 1.502-6.861-.0194-.9950-.2510-2.195-.6875-3.588l-1.521-4.715c-.1786-.4439-.2715-.8719-.2715-1.285 0-.3265.1382-.5061.4160-.5469v-.2949zm7.617.1172c-1.389.02024-2.401.2847-3.029.7949-.6615.5256-.9844 1.189-.9844 1.99v.7910l-.4180.1934v.2715h3.719v-.2715l-.4961-.1934v-.7031c0-.8011.065-1.389.1973-1.771.1324-.3674.5162-.5566 1.145-.5566.5688 0 .9205.1641 1.053.4805.1058.3521.1582.7502.1582 1.199v1.203c0 .5103-.0797.9599-.2383 1.348-.1919.4083-.5549.6172-1.084.6172-.7408 0-1.371.08158-1.906.25-.5291.1582-.9450.3633-1.256.6133-.3241.2398-.5434.5199-.6426.8516-.1588.3061-.2305.5963-.2305.8770l-.4180.1934v.2715h3.719v-.2715l-.4961-.1934c-.0194-.6480.0597-1.158.2383-1.525.1455-.3469.5149-.5254 1.104-.5254.8863-.01518 1.284.7802 1.211 2.393v3.066c0 .9388-.0668 1.679-.1992 2.23-.1323.5663-.3228 1.016-.5742 1.348-.2381.3265-.5025.6272-.8066.8926-.3175.2602-.6419.5651-.9726.9121v-5.754l.5352-.2715-.1719-.4336h-3.434l-.1914.3730.4570.3320v5.934c0 1.01.3760 1.868 1.137 2.572.7342.7603 1.984 1.148 3.75 1.168.8004 0 1.541-.1835 2.223-.5508.6812-.3725 1.04-.9289 1.066-1.674-.053-.9184-.5691-1.393-1.555-1.424-.9523.03067-1.436.4033-1.463 1.107.0263.7194.4769 1.076 1.363 1.076.5225-.02024.8465-.1841.9590-.4902l.1191.02539c-.0529.4132-.3306.7402-.8398.9902-.5026.2603-1.065.3887-1.674.3887-1.363 0-2.058-.5979-2.084-1.797-.0263-.6583.3909-1.261 1.244-1.807 1.144-.7194 2.084-1.479 2.818-2.275.7143-.7755 1.085-1.745 1.111-2.898v-3.352c0-.5460-0.16-1.056-.4707-1.525-.3704-.4490-1.092-.7753-2.15-.9844.7276-.2195 1.331-.5066 1.82-.8535.5092-.3520.7743-.8874.8008-1.617 0-.9694-.2929-1.713-.875-2.244-.6019-.5255-1.7-.7910-3.287-.7910zm-15.29.03516-.5820.1484h-8.941v.3418l.8457.2031v19.3l-.8457.2031v.3418h9.861v-.3418l-.8398-.2031v-7.93l.4629-.1934-.1524-.4492c-.2977.04104-.6014.06055-.9121.06055-1.382-.02024-2.507-.3880-3.373-1.107-.9261-.6991-1.396-1.577-1.396-2.633v-7.047h2.475c-.0263.6327-.1068 1.373-.2324 2.23-.1720.8879-.2578 1.511-.2578 1.873 0 .7348.2252 1.269.6816 1.596.3637.3674.8008.5566 1.297.5566.8002 0 1.348-.1930 1.639-.5859.1521-.1684.2664-.3429.3457-.5215.0263-.1785.0391-.3411.0391-.4941 0-.3469-.1189-.6322-.3438-.8516-.2911-.2296-.6748-.3418-1.145-.3418-.8797.02024-1.329.3880-1.355 1.107 0 .3061.1249.5499.3828.7285.2117.2296.5023.3477.8594.3477v.2090c-.3835.03586-.7459-.06093-1.09-.3008-.4168-0.25-.6289-.6385-.6289-1.164 0-1.051.2587-1.877.7812-2.484.4960-.6071 1.368-1.352 2.611-2.24l-.1856-.3574zm-14.72 1.246c-.1786.4286-.2715.9387-.2715 1.525 0 .2296.02698.4437.08008.6426.02634.2296.07954.5152.1523.8672l1.838 6.266c.3309 1.536.4961 2.832.4961 3.889 0 .9439-.1529 1.877-.4570 2.795-.3440.9338-.8862 1.7-1.627 2.287.1720-.3572.2656-.8177.2656-1.379 0-.6480-.1465-1.408-.4375-2.285l-1.627-5.639c-.3306-1.143-.5087-2.429-.5352-3.857 0-.9746.1654-1.918.4961-2.826.3175-.8776.8596-1.637 1.627-2.285zm19.96 0c-.1785.4286-.2715.9387-.2715 1.525 0 .2296.0251.4437.0781.6426.0264.2296.0796.5152.1523.8672l1.84 6.266c.3308 1.536.4961 2.832.4961 3.889 0 .9439-.1528 1.877-.4570 2.795-.3440.9338-.8861 1.7-1.627 2.287.1720-.3572.2637-.8177.2637-1.379 0-.6480-.1447-1.408-.4356-2.285l-1.627-5.639c-.3307-1.143-.5107-2.429-.5371-3.857 0-.9746.1654-1.918.4961-2.826.3175-.8776.8617-1.637 1.629-2.285zm-75.79.1660c.09445.005.1808.01525.2559.03125 1.12.2417 1.882.5841 2.086 1.857.1334.8324-.4497 1.695-1.199 1.951-.4460.1524-.9797.01539-1.43-.09961-.9808-.2512-1.877-1.847-1.605-2.818.1858-.6638 1.232-.9484 1.893-.9219zm-.2324.6719c-.1699 0-.3365.03683-.4922.1152-.7467.3772.4210 2.168 1.619 1.682.3635-.1474.4886-.7494.2051-1.115-.2926-.3775-.8223-.6842-1.332-.6816zm3.285 5.445c.1275 0 .5797.08272.7793.07813.7518-.017 1.06.7895.4277.9570-.5842.1548-.9552-.6436-1.188-1.012l-.01953-.02344zm61.62 2.512c.2382.3215.6149.6233 1.131.9141.5092.3112.9855.5557 1.422.7344v8.303h-2.553v-9.951z"/>
   <path style="fill:#3384a7" d="m78.44 11.48c-1.888.02024-2.902.8160-3.055 2.393l-1.344 8.328h-.6230l-2.227-10.02.7285-.2402-.07227-.3105h-4.365v.3711l.9062.1797 2.346 10.02-.8086.2344v.3066h3.93l-.3906 2.291h-.3379c-1.391.02024-2.551.3771-3.479 1.076-.9408.6888-1.425 1.547-1.445 2.572.01965 1.061.5053 1.945 1.439 2.664.9275.7398 2.078 1.116 3.463 1.137 1.345-.02024 2.485-.3970 3.406-1.137.9474-.7144 1.437-1.604 1.457-2.66-.01965-.8572-.3832-1.611-1.072-2.27-.7088-.6480-1.585-1.087-2.625-1.316l1.525-9.607c.05295-.2399.1913-.4964.4297-.7617.1988-.2296.4648-.3565.8027-.3770.5830.02024.8730 0.47.8730 1.348h.5371v-4.221zm5.352 0c-2.816.0613-4.2.9744-4.16 2.75v17.24l-.8496.2090v.3418h4.553v-.3418l-.8945-.2090v-9.094c.05304.1581.2583.3327.6094.5215.3113.2041.7609.3008 1.344.3008.6360 0 1.252-.1834 1.855-.5508.5564-.3419.8485-.8882.875-1.648 0-.4082-.1452-.7344-.4434-.9844-.2847-.2603-.663-.3926-1.146-.3926-.9806.02024-1.471.3877-1.471 1.092.02636.7195.4830 1.082 1.357 1.082.4969-.02024.7889-.1899.875-.4961l.1191.03125c-.1988.8980-.8946 1.353-2.094 1.373-1.199-.02024-1.828-.6890-1.881-2.016 0-.7807.2712-1.414.8145-1.904.4837-.4847 1.08-.8412 1.775-1.061.3710-.1276.7147-.2448 1.02-.3418.3179-.1020.6242-.2205.9023-.3633.2981-.1684.5168-.4176.6758-.7441.1259-.3011.1914-.7201.1914-1.256v-.9434c-.05295-1.709-1.397-2.577-4.027-2.598zm-31.38.0059-.2051.3574c1.259.9287 2.152 1.836 2.662 2.734.4903.8980.7285 1.882.7285 2.959-.02008.5358-.2185.9293-.5762 1.164-.3644 0.25-.7426.3572-1.127.3164v-.2246c.3843 0 .6971-.1118.9355-.3262.2053-.1939.3047-.4353.3047-.7363-.02638-.7195-.4771-1.085-1.352-1.105-.4638 0-.8080.1106-1.033.3301-.2782.2296-.4121.5150-.4121.8672 0 .3265.1339.6581.4121 1 .3115.3878.8342.5820 1.576.5820 1.199.02024 1.834-.6928 1.914-2.137-.02638-.4082-.09873-1.2-.2246-2.363-.1790-1.138-.2656-2.046-.2656-2.725h2.426v19.29l-.8027.25v.3008h4.426v-.2969l-.8145-.2539v-19.29h2.432c-.0264.6327-.1007 1.373-.2266 2.23-.1524.8878-.2246 1.51-.2246 1.867 0 .7399.2127 1.275.6367 1.602.3644.3674.7872.5566 1.277.5566.8017 0 1.345-.1982 1.617-.5859.1525-.1684.2712-.3429.3574-.5215.02638-.1785.03906-.3462.03906-.4941 0-.3469-.1189-.6342-.3574-.8535-.2783-.2296-.6416-.3418-1.105-.3418-.8811.02024-1.331.3880-1.357 1.107 0 .3061.1314.5518.3965.7305.1988.2296.4833.3418.8477.3418v.2090c-.3910.04104-.7559-.05703-1.094-.2969-.4174-0.25-.6211-.6373-.6211-1.168 0-1.046.2567-1.871.7734-2.479.4837-.6071 1.353-1.352 2.592-2.24l-.2051-.3574-.5645.1484h-13.22l-.5625-.1484zm31.25.5410c.2716 0 .5562.05034.8477.1523.3048.1378.4695.5053.4961 1.107v2.602c0 .3265-.07933.6138-.2383.8535-.1987 0.25-.4448.4748-.7363.6738-.2452.2091-.5152.4123-.8066.6113-.3049.2091-.5633.4548-.7754.7305v-5.471c0-.6022.1522-.9697.4570-1.107.2650-.1020.5174-.1523.7559-.1523zm-49.14 10.03c-.03344.005-.06963.01516-.1074.03516-.7920.4199-1.272.5467-1.305.6621-.07231.2532.09555.6662.03906 1.438-.1887 2.565-.6429.5833-.4473.08594.0051-.0095.06138-1.286-.1914-1.219-.1176.031-.8050.4447-.8086.4453.5419 1.387-.1817 3.584-.4844 1.451-.09354-.6593.3967-1.411-.7539-.8320-.01115.0055-.6541 1.99-1.301 2.752-2.651 3.122-1.135 6.937-3.926 9.062-1.455 1.108-2.841 2.436-4.572.9590-.9313-.7946 2.561-4.65 3.125-5.398.6280-.8340 1.947-1.836.6777-2.598-.5659-.3399-2.684-2.232-2.852-1.934-.04662.0836-.1047.2524-.09375.3887.2966 3.669-1.887 4.935-3.352 6.334-5.734 5.477-.1501 11.26 5.316 8.514 1.581-.7950 2.935-1.406 4.463-2.453.6654-.4560 3.794-2.052 4.307-.9121.6561 1.459-.6246 2.934-.6133 2.932 1.044-.2632 3.853-.6507 4.607-2.287.06065-.1315 1.736-.7458 2.549-1.699 1.654-1.939 1.611-2.204 2.459-4.863.8485-2.661 1.058-3.462 2.541-5.949.2582-.4332 1.345-4.558-.2402-4.068-1.106.3416-3.656.4414-3.68.9336-.01622.3313-1.142 5.144-1.152 5.162-.2902.5472-.6356 2.129-.7285.1348-.05016-1.079 1.211-5.11 1.178-5.236-.5042.1824-2.049.5201-2.025.8613.2730 3.914-.4532 7.261-2.805 8.561-.8599.4753-4.433-.1031-2.35-2.494 1.108-1.271 2.911-4.037 3.023-6.75.01571-.3936.0051-2.073-.4980-2.018zm7.982 2.361c.6359.0536.4609 1.412.3984 1.768-.1164.6620-.6682 1.968-1.096 1.889-.6448-.1191-.5770-1.67-.4492-2.244.1711-.7693.6006-1.333 1.008-1.404.04966-.0085.09631-.01131.1387-.0078zm30.71 1.086h.1855l-.3770 1.414c-.08623.2704-.2455.5149-.4707.7344-.2252 0.25-.5110.3770-.8555.3770h-.4707v.3887h4.021v-.3633h-.5762c-.2716 0-.4902-.1014-.6426-.3105-.1588-.1633-.2324-.3583-.2324-.5879 0-.04062.0404-.2338.1133-.5859l.2324-.9746c.7686.1583 1.391.4441 1.881.8574.4969.4285.7422.9340.7422 1.516-.0264.6888-.3768 1.26-1.039 1.709-.6692.5255-1.505.7852-2.512.7852-.9871 0-1.795-.2597-2.438-.7852-.7287-.4491-1.1-1.02-1.1-1.709 0-.6990.3709-1.287 1.1-1.762.6426-.4490 1.45-.6826 2.438-.7031zm-33.18 6.186c.5135.05865.1957 1.373.0625 1.736-.4439 1.21-.9134 3.122-1.986 3.916-.7949.5883-1.905 1.725-2.621.1465-.7855-1.732.9226-4.022 2.502-4.664.7563-.3075.9876-.5755 1.541-.9473.2194-.1473.3834-.2010.5020-.1875zm-1.754 2.174c-.5069.005-1.479.9896-1.666 1.299-.1651.2734-.4030.7670-.4141 1.09-.0091.2652-.09655.8375.2168.9414.2817.09345 1.743-1.208 1.908-1.578.2020-.4529.6058-1.567.04883-1.738-.02939-.009-.05996-.01367-.09375-.01367zm-3.504 4.426c.0456-.005.09192-.0041.1328.0059.05457.008.1023.02584.1348.05664.4886.4676.1464.9631-.2734 1.248-.4330.2940-.6895.9185-1.078.6426-.3345-.2375.2035-1.503.7402-1.852.06374-.0415.2066-.08911.3438-.09961v-.002z"/>
  </g>
 </g>
</svg>
